<svg xmlns="http://www.w3.org/2000/svg" width="307.016" height="49.951" viewBox="0 0 307.016 49.951">
  <g id="Group_151" data-name="Group 151" transform="translate(-821 -999.791)">
    <g id="Group_145" data-name="Group 145" transform="translate(980.849 999.791)">
      <g id="Group_143" data-name="Group 143" transform="translate(15.431 9.718)">
        <g id="Group_142" data-name="Group 142">
          <path id="Path_285" data-name="Path 285" d="M242.772,29.741H245.4a.31.31,0,1,0,0-.621h-2.626a.31.31,0,1,0,0,.621Zm1.312,23.016a1.367,1.367,0,1,0,1.367,1.369A1.369,1.369,0,0,0,244.083,52.757Zm-6.7-1.171h13.4V31.763h-13.4Zm42.974-6.509a2.67,2.67,0,0,0-1.728.63,2.966,2.966,0,0,0-1.015,1.664,3.443,3.443,0,0,0-.118.789v1.931a3.085,3.085,0,0,0,.774,2.138,2.586,2.586,0,0,0,2.015.867,2.637,2.637,0,0,0,2.268-1.121,4.944,4.944,0,0,0,.809-2.962,4.761,4.761,0,0,0-.761-2.788A2.655,2.655,0,0,0,280.358,45.077Zm47.005-.16A2.578,2.578,0,0,0,325,46.3a5.207,5.207,0,0,0-.694,2.78A5.125,5.125,0,0,0,325,51.812a2.591,2.591,0,0,0,2.339,1.377,2.562,2.562,0,0,0,2.308-1.406,5.105,5.105,0,0,0,.72-2.753,5.2,5.2,0,0,0-.689-2.735A2.562,2.562,0,0,0,327.363,44.917Zm-34.262.16a2.667,2.667,0,0,0-1.729.63,2.978,2.978,0,0,0-1.016,1.664,3.426,3.426,0,0,0-.116.789v1.931a3.092,3.092,0,0,0,.773,2.138,2.585,2.585,0,0,0,2.013.867,2.635,2.635,0,0,0,2.271-1.121,4.933,4.933,0,0,0,.814-2.962,4.78,4.78,0,0,0-.764-2.788A2.662,2.662,0,0,0,293.1,45.077Zm-26.628-4.148h-.045c-.161.683-.412,1.692-.766,3.03l-1.336,4.2h4.318l-1.354-4.2Q267.07,43.311,266.473,40.928Zm80.432,3.862a2.472,2.472,0,0,0-2.051,1.055,3.83,3.83,0,0,0-.764,2h5.368a3.53,3.53,0,0,0-.5-1.978A2.265,2.265,0,0,0,346.906,44.79ZM277.838,33.347a1.053,1.053,0,0,0,.036-.332v-.821c-1.067-.012-2.084.208-2.084,1.116a.792.792,0,0,0,.859.859A1.24,1.24,0,0,0,277.838,33.347Zm-14.061-3.754c-.16-.5-.295-1.067-.417-1.546h-.026c-.121.479-.257,1.055-.392,1.546L262.3,31.63h2.121Zm85.509-.588c1.938,0,2.576,1.594,2.576,2.907a3.613,3.613,0,0,1-.05.637h-4a1.617,1.617,0,0,0,1.84,1.545,4.806,4.806,0,0,0,1.655-.269l.221,1.03a5.365,5.365,0,0,1-2.084.38,2.825,2.825,0,0,1-3.079-3.016A2.958,2.958,0,0,1,349.285,29.005Zm-23.938.134.073.9h.037a2.191,2.191,0,0,1,1.913-1.03c1.043,0,2.123.674,2.123,2.563v3.544h-1.509V31.74c0-.859-.319-1.509-1.14-1.509a1.268,1.268,0,0,0-1.179.884,1.407,1.407,0,0,0-.073.478v3.52h-1.508V30.919c0-.688-.025-1.263-.05-1.779Zm-15.841-.134c1.938,0,2.576,1.594,2.576,2.907a3.721,3.721,0,0,1-.049.637h-4a1.616,1.616,0,0,0,1.839,1.545,4.809,4.809,0,0,0,1.655-.269l.221,1.03a5.361,5.361,0,0,1-2.084.38,2.825,2.825,0,0,1-3.078-3.016A2.957,2.957,0,0,1,309.506,29.005Zm-6.183-2.6h1.508v8.707h-1.508ZM291.36,30.071a3.157,3.157,0,0,0-1.607.443l-.295-.982a4.3,4.3,0,0,1,2.158-.527,2.238,2.238,0,0,1,2.466,2.526v2.146a8.091,8.091,0,0,0,.1,1.435h-1.361l-.11-.662h-.037a2.187,2.187,0,0,1-1.767.8,1.773,1.773,0,0,1-1.877-1.779c0-1.5,1.336-2.269,3.544-2.257v-.1C292.573,30.723,292.413,30.071,291.36,30.071Zm-8.92-3.421a.816.816,0,1,1-.846.822A.806.806,0,0,1,282.439,26.65Zm.748,2.49v5.973h-1.508V29.14Zm-20.748-2.293h1.926l2.686,8.266h-1.631l-.747-2.342h-2.613l-.712,2.342h-1.558ZM252.393,54.258a2.643,2.643,0,0,1-2.644,2.637H238.422a2.643,2.643,0,0,1-2.645-2.637V29.085a2.645,2.645,0,0,1,2.645-2.64H249.75a2.646,2.646,0,0,1,2.644,2.64Zm18.208.6-1.5-4.72h-5.227l-1.434,4.72h-2.669l5.173-16.081h3.2l5.2,16.081Zm.586-19.749H269.7l-2.22-5.973h1.632l.968,3.03c.172.527.294,1.006.4,1.5h.037c.11-.491.246-.958.4-1.5l.957-3.03h1.582Zm3.106-1.643c0-1.5,1.336-2.269,3.544-2.257v-.1c0-.392-.16-1.043-1.214-1.043a3.159,3.159,0,0,0-1.607.443l-.295-.982a4.292,4.292,0,0,1,2.158-.527,2.238,2.238,0,0,1,2.466,2.526v2.146a8,8,0,0,0,.1,1.435h-1.362l-.11-.662h-.037a2.185,2.185,0,0,1-1.766.8A1.773,1.773,0,0,1,274.293,33.469ZM284.382,53.6a4.723,4.723,0,0,1-3.574,1.523,3.569,3.569,0,0,1-3.311-1.649v6.091h-2.575V47.077c0-1.24-.033-2.509-.1-3.812h2.267l.142,1.838h.044a4.6,4.6,0,0,1,7.344-.45,6.4,6.4,0,0,1,1.371,4.27A6.559,6.559,0,0,1,284.382,53.6Zm2.681-18.489h-1.507V26.405h1.507ZM297.122,53.6a4.722,4.722,0,0,1-3.574,1.523,3.567,3.567,0,0,1-3.308-1.649v6.091h-2.578V47.077c0-1.24-.033-2.509-.1-3.812h2.261l.149,1.838h.044a4.591,4.591,0,0,1,7.339-.45,6.382,6.382,0,0,1,1.373,4.27A6.556,6.556,0,0,1,297.122,53.6Zm1.77-18.353A2.057,2.057,0,0,1,297,34.218h-.024l-.073.894h-1.288c.024-.4.049-1.066.049-1.68V26.405h1.508v3.557h.024a2.161,2.161,0,0,1,1.913-.956c1.46,0,2.5,1.214,2.49,3.029C301.6,34.181,300.241,35.248,298.892,35.248Zm12.971,18.443a6.342,6.342,0,0,1-4.382,1.407,7.68,7.68,0,0,1-4.168-1l.6-2.147a7.2,7.2,0,0,0,3.718,1A3.533,3.533,0,0,0,309.9,52.3a2.144,2.144,0,0,0,.809-1.761,2.251,2.251,0,0,0-.666-1.641,6.3,6.3,0,0,0-2.218-1.24q-4.219-1.572-4.222-4.6a4.056,4.056,0,0,1,1.487-3.247,5.909,5.909,0,0,1,3.951-1.264,7.861,7.861,0,0,1,3.652.762l-.65,2.1a6.372,6.372,0,0,0-3.086-.741,3.206,3.206,0,0,0-2.133.665,1.934,1.934,0,0,0-.643,1.461,1.991,1.991,0,0,0,.738,1.578,8.469,8.469,0,0,0,2.336,1.236,7.845,7.845,0,0,1,3.058,1.959,4.1,4.1,0,0,1,.978,2.788A4.3,4.3,0,0,1,311.863,53.691Zm9.084-8.5H318.1v5.637c0,1.43.506,2.14,1.508,2.14a4.685,4.685,0,0,0,1.144-.112l.073,1.953a5.831,5.831,0,0,1-2,.287,3.073,3.073,0,0,1-2.385-.931,4.524,4.524,0,0,1-.863-3.124V45.2h-1.692V43.265h1.692V41.142l2.526-.763v2.885h2.844Zm-1.453-9.947A2.888,2.888,0,0,1,316.5,32.17a2.948,2.948,0,0,1,3.09-3.164,2.866,2.866,0,0,1,2.969,3.066A2.96,2.96,0,0,1,319.494,35.248Zm12.025,18.114a5.466,5.466,0,0,1-4.246,1.762,5.194,5.194,0,0,1-4.074-1.693,6.176,6.176,0,0,1-1.512-4.272,6.3,6.3,0,0,1,1.561-4.413,5.392,5.392,0,0,1,4.209-1.715,5.282,5.282,0,0,1,4.109,1.694,6.108,6.108,0,0,1,1.477,4.243A6.364,6.364,0,0,1,331.519,53.362Zm2.663-24.223h.846V28.024l1.484-.418V29.14h1.434v1.128h-1.434v2.638c0,.736.2,1.1.771,1.1a1.977,1.977,0,0,0,.589-.061l.024,1.14a3.312,3.312,0,0,1-1.091.16,1.733,1.733,0,0,1-1.3-.491,2.355,2.355,0,0,1-.478-1.681v-2.81h-.846ZM340.8,45.531a4.562,4.562,0,0,0-.812-.065,2.437,2.437,0,0,0-2.1,1.024,3.83,3.83,0,0,0-.644,2.288v6.084h-2.577V46.913q0-1.993-.07-3.648h2.243l.1,2.22H337a3.9,3.9,0,0,1,1.288-1.833,3.089,3.089,0,0,1,1.863-.619,4.059,4.059,0,0,1,.641.044Zm.391-14v3.581h-1.508V26.405h1.508v3.544h.024a1.981,1.981,0,0,1,.749-.674,2.114,2.114,0,0,1,1.043-.27c1.018,0,2.086.674,2.086,2.587v3.52h-1.51v-3.36c0-.858-.319-1.521-1.152-1.521a1.259,1.259,0,0,0-1.178.847A1.355,1.355,0,0,0,341.187,31.531Zm10.636,18.158h-7.732a3.35,3.35,0,0,0,1.123,2.619,3.809,3.809,0,0,0,2.527.813,8.42,8.42,0,0,0,3.126-.554l.406,1.792a9.622,9.622,0,0,1-3.892.714,5.623,5.623,0,0,1-4.231-1.583,5.86,5.86,0,0,1-1.543-4.257,6.681,6.681,0,0,1,1.432-4.372A4.957,4.957,0,0,1,347.1,43a4.313,4.313,0,0,1,3.795,1.858,6.291,6.291,0,0,1,1.026,3.656A6.482,6.482,0,0,1,351.823,49.689ZM298.562,30.182a1.4,1.4,0,0,0-1.337,1.1,1.763,1.763,0,0,0-.05.393v.968a1.627,1.627,0,0,0,.038.357,1.377,1.377,0,0,0,1.336,1.054c.945,0,1.521-.748,1.521-1.961C300.07,31.042,299.567,30.182,298.562,30.182Zm10.859-.146a1.475,1.475,0,0,0-1.386,1.459h2.624A1.283,1.283,0,0,0,309.42,30.036Zm10.135.061c-1.068,0-1.5,1.042-1.5,2.035,0,1.153.576,2.024,1.484,2.024.858,0,1.459-.834,1.459-2.048C321,31.176,320.585,30.1,319.556,30.1Zm-29.03,3.213a.792.792,0,0,0,.858.859,1.239,1.239,0,0,0,1.19-.821,1.029,1.029,0,0,0,.037-.332v-.821C291.544,32.182,290.525,32.4,290.525,33.31ZM349.2,30.036a1.476,1.476,0,0,0-1.386,1.459h2.625A1.283,1.283,0,0,0,349.2,30.036Z" transform="translate(-235.777 -26.405)" fill="#fff"/>
        </g>
      </g>
      <g id="Group_144" data-name="Group 144" opacity="0.2">
        <path id="Path_286" data-name="Path 286" d="M361.946,65.207H228.889a6.9,6.9,0,0,1-7.054-6.725V21.99a6.907,6.907,0,0,1,7.054-6.733H361.946A6.908,6.908,0,0,1,369,21.99V58.482A6.9,6.9,0,0,1,361.946,65.207ZM228.889,17a5.118,5.118,0,0,0-5.227,4.99V58.482a5.115,5.115,0,0,0,5.227,4.982H361.946a5.116,5.116,0,0,0,5.229-4.982V21.99A5.119,5.119,0,0,0,361.946,17Z" transform="translate(-221.835 -15.257)" fill="#fff"/>
      </g>
    </g>
    <g id="Group_150" data-name="Group 150" transform="translate(821 999.813)">
      <g id="Group_146" data-name="Group 146" opacity="0.199">
        <path id="Path_287" data-name="Path 287" d="M176.3,65.189H42.081A7.389,7.389,0,0,1,34.7,57.808V22.663a7.389,7.389,0,0,1,7.381-7.381H176.3a7.389,7.389,0,0,1,7.38,7.381V57.808A7.389,7.389,0,0,1,176.3,65.189ZM42.081,17.025a5.644,5.644,0,0,0-5.637,5.637V57.808a5.644,5.644,0,0,0,5.637,5.637H176.3a5.643,5.643,0,0,0,5.636-5.637V22.663a5.643,5.643,0,0,0-5.636-5.637Z" transform="translate(-34.7 -15.282)" fill="#fff"/>
      </g>
      <g id="Group_147" data-name="Group 147" transform="translate(45.587 10.448)">
        <path id="Path_288" data-name="Path 288" d="M90.917,31.4h-.989a6.578,6.578,0,0,0-.282-1.157H88.217a5.985,5.985,0,0,0-.29,1.157H87q0-.12.722-1.979a15.6,15.6,0,0,0,.723-2.048h1.169a17.016,17.016,0,0,0,.654,2.018A17.664,17.664,0,0,1,90.917,31.4Zm-1.429-1.747a17.431,17.431,0,0,1-.528-1.726h-.05q0,.12-.547,1.726Z" transform="translate(-86.996 -27.282)" fill="#fff"/>
        <path id="Path_289" data-name="Path 289" d="M95.581,31.4h-.764a7.545,7.545,0,0,0-.85-1.339,7.414,7.414,0,0,1-1.015-1.747H92.9a10.918,10.918,0,0,1,.078,1.224q0,.765.044,1.862h-.761q.047-.958.046-2.106,0-1.128-.046-1.92h.919a5.806,5.806,0,0,0,.764,1.308,7.676,7.676,0,0,1,.934,1.648h.046a11.871,11.871,0,0,1-.074-1.237q0-.838-.043-1.72h.773q-.044.768-.044,1.92T95.581,31.4Z" transform="translate(-87.672 -27.282)" fill="#fff"/>
        <path id="Path_290" data-name="Path 290" d="M100.709,29.245a2.28,2.28,0,0,1-.562,1.533,1.967,1.967,0,0,1-1.578.656q-.458,0-1.261-.037.041-.934.04-2.106,0-1.126-.04-1.92h.541c.088,0,.221,0,.4-.009s.289-.01.343-.01a2.088,2.088,0,0,1,1.619.556A1.927,1.927,0,0,1,100.709,29.245Zm-.844.133a1.489,1.489,0,0,0-.347-1,1.311,1.311,0,0,0-1.057-.407A3.311,3.311,0,0,0,98.1,28q.03.618.031,1.293,0,.74.031,1.466a2.087,2.087,0,0,0,.4.04,1.169,1.169,0,0,0,.985-.413A1.594,1.594,0,0,0,99.866,29.379Z" transform="translate(-88.319 -27.279)" fill="#fff"/>
        <path id="Path_291" data-name="Path 291" d="M105.471,31.4h-.915a6.085,6.085,0,0,0-.55-1.351.723.723,0,0,0-.619-.257c-.119,0-.234,0-.343,0q0,.795.027,1.6h-.86q.041-.934.04-2.106,0-1.126-.04-1.92h.535c.062,0,.191,0,.388-.009s.379-.01.546-.01q1.42,0,1.42.971a1.089,1.089,0,0,1-.811,1.073v.046a.967.967,0,0,1,.547.487A10.677,10.677,0,0,1,105.471,31.4Zm-1.159-2.845q0-.615-.792-.615a2.713,2.713,0,0,0-.513.044q.034.48.034,1.249c.113,0,.209.006.288.006Q104.312,29.236,104.312,28.552Z" transform="translate(-88.948 -27.279)" fill="#fff"/>
        <path id="Path_292" data-name="Path 292" d="M110.457,29.3a2.217,2.217,0,0,1-.581,1.574,1.884,1.884,0,0,1-1.437.625,1.82,1.82,0,0,1-1.367-.574,2.022,2.022,0,0,1-.551-1.458,2.224,2.224,0,0,1,.581-1.574,1.889,1.889,0,0,1,1.438-.624,1.822,1.822,0,0,1,1.367.572A2.019,2.019,0,0,1,110.457,29.3Zm-.853.09a1.6,1.6,0,0,0-.33-1.048,1.018,1.018,0,0,0-.817-.4.946.946,0,0,0-.767.4,1.619,1.619,0,0,0-.315,1.024,1.592,1.592,0,0,0,.332,1.046,1.018,1.018,0,0,0,.815.4.941.941,0,0,0,.766-.406A1.615,1.615,0,0,0,109.6,29.389Z" transform="translate(-89.501 -27.268)" fill="#fff"/>
        <path id="Path_293" data-name="Path 293" d="M112.913,31.4h-.875q.041-.958.04-2.106,0-1.128-.04-1.92h.875q-.041.779-.04,1.92Q112.873,30.461,112.913,31.4Z" transform="translate(-90.209 -27.282)" fill="#fff"/>
        <path id="Path_294" data-name="Path 294" d="M117.683,29.245a2.277,2.277,0,0,1-.563,1.533,1.964,1.964,0,0,1-1.577.656q-.458,0-1.261-.037.039-.934.04-2.106,0-1.126-.04-1.92h.541c.088,0,.221,0,.4-.009s.289-.01.343-.01a2.089,2.089,0,0,1,1.62.556A1.927,1.927,0,0,1,117.683,29.245Zm-.844.133a1.489,1.489,0,0,0-.347-1,1.313,1.313,0,0,0-1.057-.407,3.324,3.324,0,0,0-.365.028q.031.618.031,1.293,0,.74.031,1.466a2.1,2.1,0,0,0,.4.04,1.166,1.166,0,0,0,.984-.413A1.59,1.59,0,0,0,116.84,29.379Z" transform="translate(-90.497 -27.279)" fill="#fff"/>
        <path id="Path_295" data-name="Path 295" d="M124.428,31.4h-.989a6.579,6.579,0,0,0-.282-1.157h-1.429a5.986,5.986,0,0,0-.29,1.157h-.931q0-.12.722-1.979a15.506,15.506,0,0,0,.722-2.048h1.169a17.13,17.13,0,0,0,.655,2.018A17.667,17.667,0,0,1,124.428,31.4ZM123,29.654a17.6,17.6,0,0,1-.529-1.726h-.049q0,.12-.547,1.726Z" transform="translate(-91.295 -27.282)" fill="#fff"/>
        <path id="Path_296" data-name="Path 296" d="M128.711,28.426a1.2,1.2,0,0,1-.549,1.091,2.435,2.435,0,0,1-1.346.353c-.1,0-.166,0-.207-.007q0,.582.034,1.534h-.869q.041-.893.04-2.106,0-1.113-.04-1.92h.538c.077,0,.223,0,.439-.009s.4-.01.563-.01a1.774,1.774,0,0,1,.993.266A.9.9,0,0,1,128.711,28.426Zm-.8.17q0-.662-.878-.662a2.533,2.533,0,0,0-.465.046c.024.39.034.831.034,1.323.051,0,.112.006.18.006Q127.914,29.31,127.913,28.6Z" transform="translate(-91.971 -27.279)" fill="#fff"/>
        <path id="Path_297" data-name="Path 297" d="M132.966,28.426a1.2,1.2,0,0,1-.549,1.091,2.436,2.436,0,0,1-1.347.353c-.1,0-.166,0-.207-.007q0,.582.034,1.534h-.869q.041-.893.04-2.106,0-1.113-.04-1.92h.538c.077,0,.223,0,.439-.009s.4-.01.563-.01a1.771,1.771,0,0,1,.992.266A.9.9,0,0,1,132.966,28.426Zm-.8.17q0-.662-.879-.662a2.524,2.524,0,0,0-.464.046q.034.584.034,1.323c.051,0,.112.006.18.006Q132.168,29.31,132.168,28.6Z" transform="translate(-92.517 -27.279)" fill="#fff"/>
        <path id="Path_298" data-name="Path 298" d="M139.775,29.3a2.217,2.217,0,0,1-.581,1.574,1.884,1.884,0,0,1-1.437.625,1.819,1.819,0,0,1-1.367-.574,2.022,2.022,0,0,1-.551-1.458,2.224,2.224,0,0,1,.581-1.574,1.889,1.889,0,0,1,1.438-.624,1.822,1.822,0,0,1,1.367.572A2.02,2.02,0,0,1,139.775,29.3Zm-.853.09a1.6,1.6,0,0,0-.33-1.048,1.019,1.019,0,0,0-.817-.4.945.945,0,0,0-.767.4,1.62,1.62,0,0,0-.316,1.024,1.588,1.588,0,0,0,.333,1.046,1.017,1.017,0,0,0,.814.4.941.941,0,0,0,.767-.406A1.614,1.614,0,0,0,138.921,29.389Z" transform="translate(-93.262 -27.268)" fill="#fff"/>
        <path id="Path_299" data-name="Path 299" d="M144.675,31.4h-.764a7.546,7.546,0,0,0-.85-1.339,7.415,7.415,0,0,1-1.015-1.747H142a10.9,10.9,0,0,1,.077,1.224q0,.765.044,1.862h-.761q.047-.958.046-2.106,0-1.128-.046-1.92h.919a5.805,5.805,0,0,0,.764,1.308,7.675,7.675,0,0,1,.934,1.648h.047a11.66,11.66,0,0,1-.075-1.237q0-.838-.043-1.72h.773q-.044.768-.044,1.92T144.675,31.4Z" transform="translate(-93.97 -27.282)" fill="#fff"/>
      </g>
      <g id="Group_148" data-name="Group 148" transform="translate(45.343 19.414)">
        <path id="Path_300" data-name="Path 300" d="M101.184,45.606a6.455,6.455,0,0,1-1.778,4.776A6.932,6.932,0,0,1,94.15,52.5a7.371,7.371,0,0,1-7.434-7.474,7.371,7.371,0,0,1,7.434-7.473,7.373,7.373,0,0,1,2.938.6,5.891,5.891,0,0,1,2.238,1.6l-1.259,1.26a4.828,4.828,0,0,0-3.917-1.7,5.532,5.532,0,0,0-5.555,5.715,5.625,5.625,0,0,0,9.552,4.117,4.49,4.49,0,0,0,1.2-2.9h-5.2V44.527h6.934A6.182,6.182,0,0,1,101.184,45.606Z" transform="translate(-86.716 -37.553)" fill="#fff"/>
        <path id="Path_301" data-name="Path 301" d="M105.6,44.223a5.138,5.138,0,0,1,7.234,0,5.6,5.6,0,0,1,0,7.453,5.138,5.138,0,0,1-7.234,0,5.6,5.6,0,0,1,0-7.453Zm1.369,6.294a3.091,3.091,0,0,0,4.5,0,3.95,3.95,0,0,0,0-5.135,3.093,3.093,0,0,0-4.5,0,3.95,3.95,0,0,0,0,5.135Z" transform="translate(-88.957 -38.218)" fill="#fff"/>
        <path id="Path_302" data-name="Path 302" d="M117.868,44.223a5.138,5.138,0,0,1,7.234,0,5.6,5.6,0,0,1,0,7.453,5.138,5.138,0,0,1-7.234,0,5.6,5.6,0,0,1,0-7.453Zm1.369,6.294a3.09,3.09,0,0,0,4.5,0,3.947,3.947,0,0,0,0-5.135,3.092,3.092,0,0,0-4.5,0,3.947,3.947,0,0,0,0,5.135Z" transform="translate(-90.531 -38.218)" fill="#fff"/>
        <path id="Path_303" data-name="Path 303" d="M133.53,57.482a4.433,4.433,0,0,1-2.838-.87,5.1,5.1,0,0,1-1.579-1.988l1.679-.7a2.752,2.752,0,0,0,1.029,1.339,2.844,2.844,0,0,0,1.709.54,3.148,3.148,0,0,0,2.388-.909,3.423,3.423,0,0,0,.869-2.468v-.939h-.08a3.759,3.759,0,0,1-1.358,1.2,4.065,4.065,0,0,1-1.979.479,4.306,4.306,0,0,1-3.277-1.5,5.7,5.7,0,0,1,0-7.435,4.308,4.308,0,0,1,3.277-1.5,4.075,4.075,0,0,1,1.979.479,3.761,3.761,0,0,1,1.358,1.2h.08V43.053h1.759v9.292a4.881,4.881,0,0,1-1.459,3.828A5.138,5.138,0,0,1,133.53,57.482Zm.139-5.995a2.931,2.931,0,0,0,2.208-.96,4.109,4.109,0,0,0,0-5.155,3,3,0,0,0-4.406.01,4.044,4.044,0,0,0,0,5.135A2.924,2.924,0,0,0,133.67,51.487Z" transform="translate(-92.104 -38.218)" fill="#fff"/>
        <path id="Path_304" data-name="Path 304" d="M143.825,52.227h-1.838V37.919h1.838Z" transform="translate(-93.807 -37.6)" fill="#fff"/>
        <path id="Path_305" data-name="Path 305" d="M150.329,53.165a4.721,4.721,0,0,1-3.607-1.479,5.24,5.24,0,0,1-1.389-3.736,5.392,5.392,0,0,1,1.349-3.678,4.381,4.381,0,0,1,3.448-1.538,4.518,4.518,0,0,1,3.487,1.418,5.381,5.381,0,0,1,1.309,3.8l-.02.34h-7.734a3.319,3.319,0,0,0,.989,2.337,3,3,0,0,0,2.128.86,2.639,2.639,0,0,0,2.678-1.679l1.638.679a4.386,4.386,0,0,1-1.578,1.909A4.6,4.6,0,0,1,150.329,53.165Zm2.638-6.395a2.606,2.606,0,0,0-.769-1.6,2.75,2.75,0,0,0-2.109-.759,2.635,2.635,0,0,0-1.769.64,3.266,3.266,0,0,0-1.029,1.718Z" transform="translate(-94.236 -38.218)" fill="#fff"/>
        <path id="Path_306" data-name="Path 306" d="M164.364,52.227h-1.838V37.919H167.4a4.525,4.525,0,0,1,3.147,1.209,4.16,4.16,0,0,1,0,6.095,4.521,4.521,0,0,1-3.147,1.209h-3.038Zm0-7.553h3.078a2.378,2.378,0,0,0,1.858-.779,2.46,2.46,0,0,0,0-3.437,2.375,2.375,0,0,0-1.858-.779h-3.078Z" transform="translate(-96.442 -37.6)" fill="#fff"/>
        <path id="Path_307" data-name="Path 307" d="M176.468,52.227H174.63V37.919h1.838Z" transform="translate(-97.995 -37.6)" fill="#fff"/>
        <path id="Path_308" data-name="Path 308" d="M181.633,53.165a3.864,3.864,0,0,1-2.607-.9,2.977,2.977,0,0,1-1.05-2.377,2.938,2.938,0,0,1,1.24-2.508,5.021,5.021,0,0,1,3.057-.909,5.262,5.262,0,0,1,2.658.6v-.28a2.189,2.189,0,0,0-.739-1.729,2.656,2.656,0,0,0-1.818-.649,2.82,2.82,0,0,0-1.449.38,1.958,1.958,0,0,0-.89,1.038l-1.678-.719a3.8,3.8,0,0,1,1.339-1.628,4.287,4.287,0,0,1,2.638-.749,4.526,4.526,0,0,1,3.117,1.1,3.924,3.924,0,0,1,1.239,3.1v5.915H184.93V51.487h-.079A3.606,3.606,0,0,1,181.633,53.165Zm.3-1.678a3,3,0,0,0,2.069-.85,2.633,2.633,0,0,0,.929-2.008,3.626,3.626,0,0,0-2.338-.639,3.044,3.044,0,0,0-2.018.579,1.741,1.741,0,0,0-.68,1.359,1.309,1.309,0,0,0,.62,1.139A2.474,2.474,0,0,0,181.933,51.487Z" transform="translate(-98.424 -38.218)" fill="#fff"/>
        <path id="Path_309" data-name="Path 309" d="M192.019,57.208h-1.9l2.279-4.936L188.362,43.1h2l2.918,7.035h.039l2.837-7.035h2Z" transform="translate(-99.757 -38.265)" fill="#fff"/>
      </g>
      <g id="Group_149" data-name="Group 149" transform="translate(11.043 10.915)">
        <path id="Path_310" data-name="Path 310" d="M47.377,43.589q0-6.856,0-13.71a2.053,2.053,0,0,1,.506-1.5c.154-.165.266-.209.455-.016q4.613,4.706,9.239,9.4,2.993,3.041,5.995,6.076c.194.2.211.3.005.5q-7.352,7.309-14.682,14.641a.5.5,0,0,1-.794.047,1.865,1.865,0,0,1-.724-1.584q0-4.06-.005-8.12,0-2.871,0-5.741Z" transform="translate(-47.369 -27.86)" fill="#fff"/>
        <path id="Path_311" data-name="Path 311" d="M49.393,27.8a1.69,1.69,0,0,1,.892.248q9.388,5.262,18.78,10.516c.288.16.282.25.06.469q-2.1,2.066-4.177,4.155c-.149.15-.241.236-.441.031Q57.037,35.606,49.554,28C49.512,27.959,49.478,27.909,49.393,27.8Z" transform="translate(-47.628 -27.804)" fill="#fff"/>
        <path id="Path_312" data-name="Path 312" d="M51,61.321q6.815-6.888,13.622-13.783c.282-.286.412-.248.664.015q1.727,1.8,3.494,3.558c.207.207.223.292-.057.445q-8.749,4.788-17.488,9.593A2.694,2.694,0,0,0,51,61.321Z" transform="translate(-47.835 -30.31)" fill="#fff"/>
        <path id="Path_313" data-name="Path 313" d="M79.111,45.353a1.431,1.431,0,0,1-.629,1.147,7.878,7.878,0,0,1-.87.53c-1.763.975-3.531,1.94-5.29,2.922a.4.4,0,0,1-.575-.077q-1.879-1.94-3.787-3.853c-.186-.186-.19-.288,0-.474q2.22-2.188,4.418-4.4a.354.354,0,0,1,.513-.071c1.742.987,3.491,1.96,5.238,2.939A1.6,1.6,0,0,1,79.111,45.353Z" transform="translate(-49.992 -29.497)" fill="#fff"/>
      </g>
    </g>
  </g>
</svg>
