<svg xmlns="http://www.w3.org/2000/svg" width="224.286" height="67" viewBox="0 0 224.286 67">
  <g id="Group_1" data-name="Group 1" transform="translate(-92.52 -71.976)">
    <path id="Path_1" data-name="Path 1" d="M129.091,91.223H105.073a10.475,10.475,0,0,0-10.349,8.963,10.7,10.7,0,0,0-.11,1.505v7.173a6.535,6.535,0,1,0,8.932,9.541,3.558,3.558,0,0,0,.269-.279,6.519,6.519,0,0,0,0-8.963c-.076-.081-.159-.154-.238-.23v-6.126a2.617,2.617,0,0,1,2.612-2.622h33.26v-.01A10.474,10.474,0,0,0,129.091,91.223Z" transform="translate(0 -0.753)" fill="#268aca"/>
    <path id="Path_2" data-name="Path 2" d="M139.729,109.212a6.538,6.538,0,1,0-9.242,9.242l.007.006v6.2a2.615,2.615,0,0,1-2.612,2.612H94.621v.01a10.474,10.474,0,0,0,10.359,8.953H129a10.475,10.475,0,0,0,10.349-8.963,10.7,10.7,0,0,0,.11-1.506v-7.311l0,0a3.555,3.555,0,0,0,.269-.279,6.519,6.519,0,0,0,0-8.963Z" transform="translate(-0.006 -0.801)" fill="#268aca"/>
    <text id="raheem" transform="translate(149.806 125.976)" fill="#268aca" font-size="50" font-family="SegoeUI, Segoe UI"><tspan x="0" y="0">raheem</tspan></text>
  </g>
</svg>
