<svg xmlns="http://www.w3.org/2000/svg" width="274.782" height="86.017" viewBox="0 0 274.782 86.017">
  <g id="Group_651" data-name="Group 651" transform="translate(-184.218 -74.983)">
    <g id="Group_1" data-name="Group 1" transform="translate(112.404 10.413)">
      <g id="Group_650" data-name="Group 650" transform="translate(71.814 51.57)">
        <path id="Path_1" data-name="Path 1" d="M135.368,91.223h-28.14a12.273,12.273,0,0,0-12.125,10.5,12.539,12.539,0,0,0-.129,1.764v8.4a7.657,7.657,0,1,0,10.465,11.179,4.166,4.166,0,0,0,.315-.327,7.638,7.638,0,0,0,0-10.5c-.089-.095-.186-.18-.279-.27V104.8a3.066,3.066,0,0,1,3.06-3.072H147.5v-.012A12.271,12.271,0,0,0,135.368,91.223Z" transform="translate(-92.52 -56.667)" fill="#268aca"/>
        <path id="Path_2" data-name="Path 2" d="M147.471,109.564a7.66,7.66,0,1,0-10.829,10.829l.008.007v7.265a3.063,3.063,0,0,1-3.06,3.061H94.621v.012a12.271,12.271,0,0,0,12.137,10.49H134.9a12.273,12.273,0,0,0,12.125-10.5,12.538,12.538,0,0,0,.129-1.764V120.4l0,0a4.167,4.167,0,0,0,.315-.327,7.638,7.638,0,0,0,0-10.5Z" transform="translate(-92.167 -53.988)" fill="#268aca"/>
        <text id="raheem" transform="translate(67.118 76)" fill="#268aca" font-size="58" font-family="SegoeUI, Segoe UI"><tspan x="0" y="0">raheem</tspan></text>
      </g>
    </g>
    <text id="ride_hailing..reloaded." data-name="ride hailing..reloaded." transform="translate(397 157)" fill="#c4e8ff" font-size="13" font-family="SegoeUI, Segoe UI"><tspan x="-61.687" y="0">ride hailing..reloaded.</tspan></text>
  </g>
</svg>
