<svg xmlns="http://www.w3.org/2000/svg" xmlns:xlink="http://www.w3.org/1999/xlink" width="3912.732" height="1929.525" viewBox="0 0 3912.732 1929.525">
  <defs>
    <clipPath id="clip-path">
      <rect id="Mask" width="1929.015" height="3912.732" transform="translate(0)" fill="#2424e2"/>
    </clipPath>
    <linearGradient id="linear-gradient" x1="0.5" x2="0.5" y2="1" gradientUnits="objectBoundingBox">
      <stop offset="0" stop-color="#fff"/>
      <stop offset="1" stop-color="#fff" stop-opacity="0"/>
    </linearGradient>
  </defs>
  <g id="Group_153" data-name="Group 153" transform="translate(-2644 2572.525) rotate(-90)">
    <g id="Map" transform="translate(643 2644)" clip-path="url(#clip-path)">
      <g id="Map-2" data-name="Map" transform="translate(-369.889)">
        <path id="Path_" data-name="Path " d="M0,0H2656.792V3912.732H0Z" fill="#f1f1f1"/>
        <path id="Intersection_" data-name="Intersection " d="M1700.177,3912.732l-69.24-163.18-128.368,29.106-18.108,134.074H1455.7l45.278-335.615-78.3,7.936-143.811,327.237h-60.186l75.629-172.441-172.575-33.515-94.274,199.779,18.644,6.615H993.9l46.872-99.223-187.489-59.538a1643.159,1643.159,0,0,1-93.209,158.761H694.029c85.219-121.719,150.2-259.315,194.413-371.336L484.7,3515.811l79.9,396.915H507.069l-25.563-126.572-231.7,32.638-2.13,25.581,48.466,68.353H263.125l-19.174-26.9-2.13,26.9H213.587l7.99-89.962L52.2,3846.574l5.86,65.715H1.071L0,3900.046V3146.5l50.6-143.158L0,2999.786v-46.912l66.581,4.609,66.046-187L0,2717.528v-86.261l35.159,13.973,122.5-357.23-115.577-53.8L0,2341.257v-75.69l15.45-39.3c-4.528-.626-9.782-1.356-15.45-2.144V2200.5l24.5,3.277,82.561-209.926L0,1957.735v-25.527l115.583,39.151L263.66,1595.612,0,1616.4v-47.485l397.352-31.077-284.428-270.35c-19.436,1.536-73.835,6.064-112.924,8.961v-23L103.87,1245,93.215,1113.135,0,1122.978v-78.965l82.56-8.5L63.387,935.4C40.17,938.423,18.4,941.272,0,943.632V919.47l59.128-7.444L39.418,811.034,0,815.317V791.654l34.623-3.992L7.99,649.179,0,649.822V602.938l222.648-17.705-35.159-207.28C128.207,388.1,65.112,395.848,0,401.67V354.591q16.357-1.455,32.494-3.1L15.979,164.938,0,163.339v-47.6l11.19,1.131L1.071.438H58.063L88.956,344.876c33.023-4.408,64.981-8.822,95.874-14.556L213.587.438h28.234L213.587,324.587c84.161-16.757,157.66-39.248,214.123-69.679,3.73-2.207,7.99-4.852,12.249-7.054L263.66.438h33.023l75.1,105.406L514,35.721,507.076.438H564.6l25.569,127.454C627.983,89.082,662.6,45.863,694.029.438h66.046Q748.09,18.961,734.505,37.485L948.1,98.786,994.435.438h52.2l149.141,51.6,22.9-51.6h60.186l-4.795,11.467,174.175,44.544L1455.7.438h28.764L1475.406,63.5l136.351,35.283c18.644-4.408,65.517-15.437,118.249-27.343L1699.642,0h29.828c11.19,26.018,20.774,49.39,27.7,65.271,43.677-10.147,87.884-20.289,120.907-27.786L1856.237.438H1961.7l9.59,15.437L2035.736.438h202.939c-98.01,23.373-188.554,45.425-242.351,58.218l90.55,153.033,211.451-29.55L2271.162.438h56.992l26.633,174.2,216.252-30.431L2603,.438h53.8V187.723l-14.385,63.214,14.385,3.507v24.171l-17.58-4.3,17.58,31.445V417.514l-36.223-64.7-79.359,358.107A193.726,193.726,0,0,1,2603,764.289l53.8-26.8v27.78l-40.483,20.186c10.656,21.171,17.044,44.1,17.044,68.36,0,3.527-.529,6.615-.529,10.142l23.968,3.721v79.707l-51.667-8.015c-29.828,42.78-82.024,74.093-143.282,82.915l-79.36,205.073,274.308,45.557v24.064l-126.238-21.108c-3.194,16.757-9.589,48.952-16.507,83.792l142.745,15.625v23.7L2509.782,1382.6c-6.389,33.076-12.784,65.709-17.043,86.88l164.055,25.656v47.685l-174.7-27.034-64.987,246.09,239.691-185.433v32.536l-243.95,188.18,97.475,98.785,146.476-72v54.276l-110.258,54.328,82.024,82.471,28.234-13.824v27.572l-10.654,5.217,10.654,10.79v36.847L2522.038,1944.9,2237.61,2084.7l419.184,62.4v79.629l-110.258-16.331-53.262,262.4,163.52,32.224v24.12l-168.314-33.41-31.43,155.678c70.31,10.985,138.414,21.968,199.744,31.692v47.685l-133.163-21.159-42.612,245.647,130.5,22.053,45.278-156.2v101.79l-17.05,58.82,17.05,2.852v48.03l-183.229-30.6-25.034,144.216,208.262,34.019v23.507l-212.522-34.591-30.364,176.406,242.885,34.454V3427.8l-250.875-35.475-29.828,173.317,280.7,31.771v47.008l-121.978-13.947-30.894,168.909,130.5-31.308,22.374-99.394v243.6h-54.862l20.774-92.614c-68.182,16.757-182.164,44.1-297.748,71.887l3.195,20.727h-56.992l-1.064-7.5c-10.655,2.645-20.774,4.851-31.423,7.5H2035.736l233.3-55.567L2289.807,3735l-376.043,96.584,47.937,81.146H1856.237l-111.852-188.754L1658.1,3743.38c12.249,29.107,45.271,107.164,71.906,169.352Zm627.977-70.566,145.411-34.84,32.494-179.055-138.487-15.876Zm-2293-184.346L50.073,3823.2l426.638-60.418-28.763-142.01Zm1816.29,68.8,49.531,83.353,142.217-37.047-26.634-85.555Zm-986.975,5.3,186.953,59.094,42.613-89.969L897.5,3662.672C887.377,3685.606,876.187,3708.535,864.474,3731.914Zm1179.252-50.721,26.634,85.117,223.707-57.33,15.45-90.851Zm-513.993-107.165-23.968,179.494,225.836-51.159-83.619-141.127ZM1152.1,3664.435l161.92,31.313,51.132-117.311-102.263-34.84Zm599.749-106.282,74.564,125.69,492.161-116.429,14.915-85.561-498.551-59.538ZM917.2,3618.572l205.068,39.686,119.313-130.1-115.054-162.295-117.177-2.645A2263.878,2263.878,0,0,1,917.2,3618.572ZM19.709,3482.3l11.184,128.335,408-36.6-23.969-119.519Zm1414.149,78.5,201.338-21.609-67.11-112.9a245.219,245.219,0,0,1-65.517,8.822,128.3,128.3,0,0,1-13.313-.443Zm-152.866-36.608,94.274,32.2,58.063-131.863a208.45,208.45,0,0,1-44.213-18.083Zm367.517-139.8,87.355,147.3,132.092-215.216-161.92-22.934C1698.583,3328.82,1677.809,3360.132,1648.51,3384.386Zm-1168.6,107.171,417.59,26.46c25.033-65.714,43.142-120.4,53.8-156.121l-499.615-11.905Zm780.848,16.757,106.529-115.986a175.619,175.619,0,0,1-25.04-21.171l-182.158-4.409ZM18.115,3459.362l392.551-27.785-16.515-82.467L7.46,3339.843Zm2110.837-25.579,208.256,24.7,12.784-74.093-200.267-27.78Zm-280.7-33.52,252.47,29.993,21.309-78.063-225.307-31.308ZM1390.18,3263.548c0,51.6,50.6,93.058,112.389,93.058,62.322,0,112.389-41.9,112.389-93.058,0-51.6-50.6-93.057-112.389-93.057S1390.716,3212.39,1390.18,3263.548Zm648.757,29.55,319.045,44.981,15.979-91.288-314.785-48.958Zm-879.388-4.413,139.552,3.088a100.12,100.12,0,0,1-2.665-28.225,154.76,154.76,0,0,1,2.665-27.342l-118.242-47.189ZM919.864,3181.521l-15.443,100.992,225.836,5.29,23.433-109.37-178.964-71.448Zm765.4,2.644c12.249,18.965,20.239,39.692,22.9,62.183L1983,3285.157l63.387-297.687Zm-1232.52,87.762,423.444,10.143,14.385-95.259L488.96,3114.924ZM18.115,3261.786l377.1,8.822,13.849-59.981L47.408,3179.313Zm2045.856-87.324,314.25,49.4,11.719-69.241-294.547-126.129ZM247.145,3172.7l167.25,14.556,64.445-278.729-139.016-55.567Zm-191.213-16.32,162.985,14.113,94.809-327.675-129.433-51.6Zm690.828-19.4,152.33,27.343,49.538-67.917-139.552-55.567Zm895.89.882a198.606,198.606,0,0,1,27.7,26.018l382.967-208.157,4.794-22.935-315.321-52.922ZM1065.8,3056.711l268.985,107.165c18.109-20.727,41.548-37.923,67.646-49.834l-44.213-145.979Zm-571.514,34.841L718,3131.681l65.517-101.431L531.573,2929.7Zm1606.427-87.324,293.489,125.691,23.433-137.158-303.6-50.714Zm-706.807-239.475,100.133,327.68h8.525a236.854,236.854,0,0,1,56.462,6.616l111.317-288.871-50.6-103.637ZM877.787,2981.294l152.865,61.306,194.949-59.1-36.753-109.372Zm281.762-280.93,92.15,274.315,99.6-29.988L1266.614,2666.4ZM610.4,2874.567l233.3,93.057,109.188-37.484-92.68-134.513Zm1513.218,21.171,302.008,50.716,42.612-245.647-292.953-46.75ZM886.842,2786.806l92.144,134.069,201.874-69.68-47.937-142.447Zm873.521,48.07,307.867,51.6,51.667-241.238-269.514-42.781ZM408.536,2793.864,540.1,2846.343l274.838-86.881L495.885,2578.2Zm1128.656-319.3L1684.2,2775.338l167.78-433.52ZM87.355,2665.967,357.4,2773.575l88.414-219.186L162.456,2446.781Zm614.127-198.458L667.93,2647.441,846.894,2749.32l108.659-34.4,85.755-362.078c-76.165-22.053-164.585-47.632-241.815-70.123Zm580.575-71,105.465,345.757,222.106-57.331-160.32-327.681ZM986.975,2704.777l266.319-84.234-69.24-226.683c-28.764-8.383-69.24-20.289-115.583-33.52Zm1226.131-92.614c70.311,11.024,143.811,22.928,215.717,34.4l89.485-440.579-45.807-7.053ZM505.475,2555.27l136.886,77.621,29.293-158.328-128.9-12.788Zm1362.482,2.2c63.387,10.147,181.629,28.668,316.386,50.277l19.709-31.313-266.319-199.778Zm223.177-97.461,125.7,94.815,225.836-359.87-143.812-21.609ZM169.916,2423.846,454.873,2531.9l32.494-80.709L195.478,2350.2Zm1303.89-78.944,52.732,108.051,331.836-139.8-297.748-63.064Zm-920.929,94.821,126.767,12.349,93.215-176.85c-59.121-17.2-109.194-31.75-137.951-40.135Zm1394.446-87.762,122.5,92.17,199.209-275.2-237.556-35.278ZM351.009,2353.28l154.466,53.366,75.1-186.11-153.4-39.253Zm923.595,20.29,174.169-41.017,81.5-89.082-315.321-66.6Zm-374.448-86.442L1175,2366.954l-64.981-213.014-156.6-38.81Zm-688.7,17.644,113.989,39.248,153.395-345.757L329.17,1961.215ZM643.426,2212.6l230.1,66.6,52.732-171.115-218.918-53.8Zm1136.646,35.283,99.6,21.166,50.6-130.1L1825.35,2109.84ZM294.553,1592.962,51.138,2211.276l114.512,53.361,233.3-679.61ZM1602.7,2210.833l150.207,31.751,45.807-139.8-127.3-35.278Zm-178.428-289.747-104.4,49.834,66.046,193.163,161.39,33.963,142.747-295.929ZM437.829,2158.792c31.958,8.378,110.259,28.667,152.336,39.253l63.38-157-147.535-36.165Zm735.57-117.75,25.569,84.235,154.466,32.633-59.128-174.642Zm508.134,4.408,257.265,71,82.56-213.014L1787,1826.7Zm-836.769-6.172,249.8,61.3-62.315-203.754Zm1216.006,19.4,91.615,13.675,176.834-86.887c8.524-33.514,27.169-103.2,47.407-180.375l-202.4-39.692ZM563,1694.4l-72.441,257.558,322.246,79.383,211.987-160.092L967.8,1684.694Zm550.211,148.625,53.261,174.2,232.231-110.7c-27.7-30.875-108.658-119.956-133.692-147.742Zm1249.564,125.252,123.037-60.424-84.69-85.555ZM344.62,1916.234,463.4,1945.34,509.734,1780.4l-108.659-28.668Zm943.827-171.115L1426.4,1897.269l274.838-19.407,5.324-11.024-281.227-198.02Zm509.2,59.538,232.761,76.294,53.261-138.039-223.706-67.478Zm-189.089-37.491,109.194,76.739,91.079-189.636-68.711-41.46Zm-522.512-12.349,19.7,63.952,141.681-78.945-49.531-51.6Zm1096.7-11.467,199.738,38.81c28.764-107.607,59.121-222.713,71.371-270.345l-171.51-26.461ZM459.668,1580.174,408.536,1728.8l107.594,28.663,52.2-185.666Zm899.62,11.906,227.436,159.648,130.5-153.033-184.294-110.253Zm-138.481,82.033c15.979,16.758,38.347,40.13,50.067,52.479l131.562-73.65-67.117-47.189Zm649.28-20.289,222.112,66.6,34.087-88.649c-44.742-18.52-122.507-52.04-202.4-89.963Zm-888.965-246.09,90.544,297.687,250.876-149.5-69.247-191.4ZM598.154,1569.589l-28.763,101.436,390.957-9.7L924.659,1544.01Zm959.276-95.7,262.588,157.447,54.333-113.342c-66.581-32.638-130.5-67.478-174.175-98.791a249.884,249.884,0,0,1-21.3-17.639Zm165.65-101.431a154.591,154.591,0,0,0,13.849,11.024c98.539,70.123,312.655,163.618,406.936,203.31l62.851-162.293-255.67-213.9ZM418.12,1222.95l44.213,310.036L594.424,1522.4l-50.067-314.888Zm902.291,164.939,50.6,139.364,127.832-75.856-52.732-113.341ZM622.652,1520.194,910.81,1497.7l-13.849-45.863L598.154,1365.4ZM121.443,1110.484l11.184,140.246,268.984,255.794-60.186-418.531Zm2178.483,329.444,164.585,25.579,38.347-194.05-129.426-21.609ZM1380.6,1131.656l142.211,305.185,121.979-72.768c-74.042-93.052-134.228-247.41-166.721-341.788Zm-808.011,72.33,21.31,135.389L888.442,1424.5l-76.171-250.061Zm294.547-169.352,106.529,350.61,271.114-43.662-121.443-332.971Zm1127.062,145.093,232.225,194.493,100.139-259.765-150.736-63.946ZM1271.4,1253.819l40.483,111.135,124.1-49.39-75.63-161.855Zm328.105-74.975c26.1,57.775,56.462,114.667,89.485,156.565l88.949-63.507-78.83-124.809Zm126.238-41.011,74.564,118.193,109.724-78.5-96.4-67.922ZM1180.324,1003.32l80.96,222.713,207.2-232.855c-2.129-6.62-4.259-12.792-5.86-18.526Zm-782.442,78.94,17.044,117.312,390.421-47.627-33.023-107.613ZM1887.131,931.434l-54.862,160.53,99.6,70.123,314.791-223.6a156.669,156.669,0,0,1-20.774-41.455Zm-367.517,37.485c13.849,43.219,38.882,114.667,70.311,187.435l215.182-68.8,52.2-153.033Zm679.114,65.271,136.351,57.774,29.3-74.975c-31.429-8.379-59.657-22.491-83.1-41.455ZM91.615,931.872l19.173,100.555,214.658-21.609L295.618,905.854C253.541,911.145,167.786,922.174,91.615,931.872Zm289.758,73.212L767.535,965.83,752.62,919.085,352.609,903.648ZM858.078,956.57l236.491-23.816L951.823,743.118Zm1455.7-103.2c0,51.6,50.6,93.057,112.382,93.057s112.389-41.455,112.389-93.057-50.6-93.052-112.389-93.052C2363.842,760.319,2313.775,802.212,2313.775,853.37ZM970.467,723.71l155,205.961,91.085-9.266.53-228.446Zm-157.66,198.9L956.617,596.256l-270.578-78.94Zm433.034-234.18L1245.3,917.76l302.007-30.431-31.958-233.736ZM67.646,807.945,86.82,908.5l202.4-25.579L262.06,786.336ZM467.128,613.014l58.585,273.877L745.7,895.269l-92.68-296.806Zm-191.755,15,70.841,251.819,150.207,5.734L438.364,615.221ZM1561.69,786.78l13.32,97.466,169.909-17.2-18.109-97.028ZM1756.64,622.718l44.736,238.593L1994.195,841.9,1948.917,598.02Zm220.511-28.225,45.807,244.327,201.332-20.289c9.054-35.721,31.428-67.478,62.851-91.289l-94.809-160.535ZM36.224,646.977l26.628,137.6L255.135,763.4l-36.753-130.98ZM1543.052,650.5,1558.5,763.4l164.049-16.314-21.832-116.873Zm557.136-416.768L2370.23,688.87a14.643,14.643,0,0,0,4.267-.882l-72.442-482.477Zm257.794-36.16L2430.423,682.7c6.925.438,13.314.882,20.239,1.32l114.519-515.11ZM981.651,675.2,1224,643.889l101.2-299.894-173.64-54.247Zm273.244-35.283,147.541-18.964,68.711-231.1-119.313-37.485Zm177.37-22.491,221.577-28.668-22.9-148.181-133.692-41.9ZM232.767,479.388,250.34,583.026,638.1,552.156,596.025,419.408Zm1463.151,8.379,14.379,93.5L2165.7,522.607l-58.592-99.229ZM827.185,533.63,966.208,574.2,1025.329,439.7,876.187,388.538Zm-149.671-44.1L800.558,525.7l49.531-146.418-232.225-80.27ZM1642.65,140.684l49.538,323.71,186.424-29.111c-21.839-52.479-102.8-252.7-129.962-318.858ZM458.6,294.6c-64.452,34.4-148.07,59.981-243.415,78.945l13.849,82.91L589.1,396.916l-48.473-155.24A617.788,617.788,0,0,1,458.6,294.6Zm1317.74-184.346,130.5,321.065,187.488-29.55L1904.174,80.7ZM884.176,365.6l150.735,52.04,95.345-216.984L956.617,150.826Zm476.711-35.283,266.319,83.8-21.839-142.891-181.629-54.686ZM586.97,203.31l21.3,67.916,249.275,85.555,72.435-213.452L703.612,78.5C667.93,123.483,629.577,165.82,586.97,203.31Zm574.18,63.5L1334.79,321.5l68.175-124.37,34.088-94.377-182.694-46.75Zm272.708-72.324,167.78,50.277-15.979-103.643-121.437-31.313Zm-1047.7-68.36L463.4,234.18a681.938,681.938,0,0,0,78.83-59.981l-22.9-113.78Zm588.565-19.846,175.24,50.277,36.217-82.472L1017.339,15.876ZM564.6,3912.727ZM296.147,3912.727ZM2328.154,3912.289ZM58.063,3912.289Z" transform="translate(7.083)" fill="#fff"/>
      </g>
    </g>
    <path id="Gradient_map" data-name="Gradient map" d="M0,0H1929.525V3912.732H0Z" transform="translate(643 2644)" fill="url(#linear-gradient)"/>
  </g>
</svg>
