<svg xmlns="http://www.w3.org/2000/svg" xmlns:xlink="http://www.w3.org/1999/xlink" width="210.697" height="786.135" viewBox="0 0 210.697 786.135">
  <defs>
    <clipPath id="clip-path">
      <rect width="210.697" height="786.135" fill="none"/>
    </clipPath>
    <linearGradient id="linear-gradient" y1="0.5" x2="1" y2="0.5" gradientUnits="objectBoundingBox">
      <stop offset="0" stop-color="#ec4016"/>
      <stop offset="1" stop-color="#b9081b"/>
    </linearGradient>
    <linearGradient id="linear-gradient-2" y1="0.5" x2="1" y2="0.5" gradientUnits="objectBoundingBox">
      <stop offset="0" stop-color="#f9955b"/>
      <stop offset="1" stop-color="#f16530"/>
    </linearGradient>
    <linearGradient id="linear-gradient-3" x1="-34.173" y1="4.591" x2="-33.194" y2="4.591" gradientUnits="objectBoundingBox">
      <stop offset="0" stop-color="#912218"/>
      <stop offset="1" stop-color="#5b0e0d"/>
    </linearGradient>
    <linearGradient id="linear-gradient-4" x1="-36.791" y1="3.888" x2="-35.791" y2="3.888" xlink:href="#linear-gradient-3"/>
    <linearGradient id="linear-gradient-6" x1="13.607" y1="-8.61" x2="14.605" y2="-8.61" gradientUnits="objectBoundingBox">
      <stop offset="0" stop-color="#89c062"/>
      <stop offset="1" stop-color="#3f8c34"/>
    </linearGradient>
  </defs>
  <g id="Repeat_Grid_1" data-name="Repeat Grid 1" clip-path="url(#clip-path)">
    <g id="Group_152" data-name="Group 152" transform="translate(-289.303 -2726.783)">
      <path id="Path_247" data-name="Path 247" d="M307.873,205.619s-2.987,36.078,5.743,49.65,36.056,17.068,36.056,17.068,3.378,25.685-3.641,48.148-10.081,62.031-10.081,62.031-21.7-.257-38.035,1.019a274.053,274.053,0,0,1-30.967.552s4.5-40.18,4.5-49.371,5.046-111.214,6.837-118.443S307.873,205.619,307.873,205.619Z" transform="translate(63.926 2569.204)" fill="#890c17"/>
      <path id="Path_251" data-name="Path 251" d="M372.734,227.941l17.283,3.571s-2.054-18.039-18.446-27.932c-25.578-15.443-53.548,4.531-53.548,4.531s-19.653,12.285-23.482,30.93-13.277,156.483-17.615,164.4-13.331,6.124-13.331,6.124,13.127,8.467,17.98,8.976,7.856-122.583,11.432-138.959,17.615-23.685,26.8-32.876,21.267-30.635,27.61-31.01S372.734,227.941,372.734,227.941Z" transform="translate(49.299 2534.753)" fill="url(#linear-gradient)"/>
      <path id="Path_256" data-name="Path 256" d="M357.129,238.457s-.783.713-2.123,1.8c-3.319,2.735-10.017,7.759-16.43,9.776-7.722,2.386-19.165,2.129-32.624,5.571-2.038.52-4.1,1.131-6.2,1.845-.15.043-.279.086-.429.129a34.474,34.474,0,0,0-3.732,1.56c-13.309,6.376-25.836,21.615-28.527,24.994,4.381-19.224,6.832-39.429,7.5-43.2,3.078-17.277,14.569-23.525,14.569-23.525l7.11,4.923a36.014,36.014,0,0,1,7.888-4.638l47.6,13.374,4.011,1.1Z" transform="translate(64.406 2620.618)" fill="#10398e" opacity="0.41"/>
      <g id="Group_139" data-name="Group 139" transform="translate(289.303 2697.489)">
        <g id="Group_97" data-name="Group 97" transform="translate(85.584 746.879)">
          <g id="Group_96" data-name="Group 96">
            <path id="Path_223" data-name="Path 223" d="M573.4,387.792s17.1,23.478,14.669,27.262-21.093,4.324-32.438,0S544,382.747,538.865,370.727c-2.151-5.035,2.454-19.89,8.919-20.969s14.061,2.316,14.061,2.316S555.218,369.181,573.4,387.792Z" transform="translate(-538.329 -349.548)" fill="#002a45"/>
          </g>
        </g>
        <g id="Group_99" data-name="Group 99" transform="translate(93.591 745.993)">
          <g id="Group_98" data-name="Group 98" transform="translate(0 0)">
            <path id="Path_224" data-name="Path 224" d="M556.656,352.7a159.83,159.83,0,0,0,3.509,18.924c2.162,7.836,13.782,25.674,13.246,27.84s-15.14,4.118-21.083-1.454-10.541-21.718-11.084-31.486a51.888,51.888,0,0,1,1.351-16.14S550.975,346.757,556.656,352.7Z" transform="translate(-541.147 -349.29)" fill="#eea886"/>
          </g>
        </g>
        <g id="Group_101" data-name="Group 101" transform="translate(86.121 768.059)">
          <g id="Group_100" data-name="Group 100">
            <path id="Path_225" data-name="Path 225" d="M551.769,355.71v25h3.245v-19.32Z" transform="translate(-551.769 -355.71)" fill="#002a45"/>
          </g>
        </g>
        <g id="Group_103" data-name="Group 103" transform="translate(40.853 746.879)">
          <g id="Group_102" data-name="Group 102">
            <path id="Path_226" data-name="Path 226" d="M586.409,387.792s17.092,23.478,14.666,27.262-21.09,4.324-32.438,0-11.62-32.308-16.755-44.327c-2.148-5.035,2.451-19.89,8.919-20.969s14.054,2.316,14.054,2.316S568.234,369.181,586.409,387.792Z" transform="translate(-551.346 -349.548)" fill="#002a45"/>
          </g>
        </g>
        <g id="Group_105" data-name="Group 105" transform="translate(48.855 745.993)">
          <g id="Group_104" data-name="Group 104" transform="translate(0 0)">
            <path id="Path_227" data-name="Path 227" d="M569.668,352.7a160.146,160.146,0,0,0,3.513,18.924c2.158,7.836,13.786,25.674,13.246,27.84s-15.14,4.118-21.082-1.454S554.8,376.295,554.26,366.527a51.824,51.824,0,0,1,1.354-16.14S564,346.757,569.668,352.7Z" transform="translate(-554.163 -349.29)" fill="#eea886"/>
          </g>
        </g>
        <g id="Group_107" data-name="Group 107" transform="translate(41.386 768.059)">
          <g id="Group_106" data-name="Group 106">
            <path id="Path_228" data-name="Path 228" d="M564.785,355.71v25h3.242v-19.32Z" transform="translate(-564.785 -355.71)" fill="#002a45"/>
          </g>
        </g>
        <g id="Group_109" data-name="Group 109" transform="translate(24.545 289.646)">
          <g id="Group_108" data-name="Group 108">
            <path id="Path_229" data-name="Path 229" d="M652.1,287.128s12.93,71.252,16.425,89.077S681.8,480.353,682.85,495.035s-31.885,85.282-33.944,90.152c-34.459,81.529-38.439,99.975-38.439,99.975s-11.315,7.091-16.542-1.368c-1.588-2.578,21.213-96.061,24.966-122,3.5-24.121,12.59-61.368,10.139-69.836s-24.818-125.12-29.015-130.015-10.486,2.8-12.933,13.635-7.685,104.5-10.827,116.38-.7,52.081-2.45,72.349-9.029,114.9-9.029,114.9-14.075,2.516-15.473.265-13.59-105.093-13.94-129.207-.722-57.374-1.4-67.8c-6.472-99.934-18.708-113,2.674-184.934C588.948,121.531,652.1,287.128,652.1,287.128Z" transform="translate(-524.569 -216.515)" fill="#eea886"/>
          </g>
        </g>
        <g id="Group_111" data-name="Group 111" transform="translate(24.545 289.646)">
          <g id="Group_110" data-name="Group 110">
            <path id="Path_230" data-name="Path 230" d="M652.1,287.128s12.93,71.252,16.425,89.077S681.8,480.353,682.85,495.035s-30.751,85.279-31.456,90.524S624.5,665.844,624.5,665.844s-26.455-.454-33.669-7.31c-1.447-1.375,24.3-70.8,28.056-96.737,3.5-24.121,12.59-61.368,10.139-69.836s-24.818-125.12-29.015-130.015-10.486,2.8-12.933,13.635-7.685,104.5-10.827,116.38-.7,52.081-2.45,72.349,1.938,92.3,1.938,92.3-34.659,1.818-36.051-.433-3.98-81.8-4.33-105.911-.722-57.374-1.4-67.8c-6.472-99.934-18.708-113,2.674-184.934C588.948,121.531,652.1,287.128,652.1,287.128Z" transform="translate(-524.568 -216.515)" fill="#002a45"/>
          </g>
        </g>
        <g id="Group_113" data-name="Group 113" transform="translate(0 153.351)">
          <g id="Group_112" data-name="Group 112">
            <path id="Path_231" data-name="Path 231" d="M547.888,407.748c-2.018-.815,14.164-54.322,17.374-70.314,2.894-14.422,12.751-27.633,3.121-52.2-5.513-14.071-5.142-30.7-5.142-30.7s-14.731,32.5-16.126,40.89,50.912-6.874,51.634-5.716c1.382,2.21,2.908,16.367,2.908,21.261,0,4.045-75.937,21.986-84.925,6.087-2.55-4.509,13.944-90.809,24.585-102.3,17.474-18.873,63.375-34.954,63.375-34.954s12.583-6.754,34.724.234,53.119,28.424,58.484,34.019,26.8,89.86,28.668,100.776c1.756,10.263,1.066,31.864-22.371,29.1l-63.261-14.487,3.929-19.282,47.417,3.75c9.678,1.653,5.039-6.843,3.8-11.566-1.2-4.63-13.105-47.516-13.105-47.516.691,11.882-8.273,50.9-12.937,64.413s5.647,85.832,6.345,93.747C676.383,412.983,638.3,444.266,547.888,407.748Z" transform="translate(-516.467 -176.859)" fill="#268aca"/>
          </g>
        </g>
        <g id="Group_115" data-name="Group 115" transform="translate(77.899 153.941)">
          <g id="Group_114" data-name="Group 114" transform="translate(6.477)">
            <path id="Path_232" data-name="Path 232" d="M540.281,180.341s13.62,16.922,25,21.881c0,0,20.481-18.475,19.434-22.735C584.715,179.487,562.028,173.43,540.281,180.341Z" transform="translate(-540.281 -177.031)" fill="#eea886"/>
          </g>
        </g>
        <g id="Group_116" data-name="Group 116" transform="translate(76.644 259.978)">
          <path id="Path_233" data-name="Path 233" d="M548.666,216.73s7.232-2.915,9.153-5.537,8.328-4.19,13.071-2.781,2.121,21.8,2.121,21.8l-25.035,3.241Z" transform="translate(-547.975 -207.883)" fill="#eea886"/>
        </g>
        <g id="Group_118" data-name="Group 118" transform="translate(114.833 266.18)">
          <g id="Group_117" data-name="Group 117">
            <path id="Path_234" data-name="Path 234" d="M549.9,227.9s-2.406-13.171-1.828-15.6-4.276-4.867-4.953,1.141-1.035,9.83-1.035,9.83Z" transform="translate(-542.085 -209.687)" fill="#eea886"/>
          </g>
        </g>
        <g id="Group_119" data-name="Group 119" transform="translate(89.32 244.121)">
          <path id="Path_235" data-name="Path 235" d="M565.8,252.682l-18.223-.742a4.39,4.39,0,0,1-4.214-4.331l-.485-39.9a4.378,4.378,0,0,1,4.526-4.434l21.818.711a4.39,4.39,0,0,1,4.234,4.726l-3.1,39.928A4.386,4.386,0,0,1,565.8,252.682Z" transform="translate(-542.881 -203.269)" fill="#51578c"/>
        </g>
        <g id="Group_121" data-name="Group 121" transform="translate(87.684 270.126)">
          <g id="Group_120" data-name="Group 120">
            <path id="Path_236" data-name="Path 236" d="M571.426,226.173s.34-3.743-6.846-7.166c-9.538-4.551-22.268-9.177-24.437-7.981-3.131,1.719-1.519,4.1,4.509,6.087s8.015,2.622,8.015,2.622-11.789-1.124-14.439.285-2.794,4.671-.859,5.207a49.42,49.42,0,0,0,6.493.859s-5,.189-5.506,2.2c-.368,1.492-.553,3.619,4.183,4.5,0,0-3.214,3.564,1.605,5.85s13.535,4.365,17.917,5.083c9.1,1.5,29.671.385,29.671.385l-8.448-14.294a24.152,24.152,0,0,1-7.932-.729C570.983,227.586,571.426,226.173,571.426,226.173Z" transform="translate(-536.06 -210.835)" fill="#eea886"/>
          </g>
        </g>
        <g id="Group_122" data-name="Group 122" transform="translate(124.468 286.645)">
          <path id="Path_237" data-name="Path 237" d="M533.3,215.642l-3.927,19.283,40.311,9.234,1.557-25.516Z" transform="translate(-529.374 -215.642)" fill="#50a8e0"/>
        </g>
        <g id="Group_123" data-name="Group 123" transform="translate(40.773 266.192)">
          <path id="Path_238" data-name="Path 238" d="M594.482,209.691s3.324,7.132,2.908,21.261c0,0-25,9.129-44.416,11.249V217.679Z" transform="translate(-552.974 -209.691)" fill="#50a8e0"/>
        </g>
        <g id="Group_124" data-name="Group 124" transform="translate(124.467 305.928)">
          <path id="Path_239" data-name="Path 239" d="M533.334,221.252l28.259,15.714c-.2-3.279-.337-6.413-.4-9.331Z" transform="translate(-533.334 -221.252)" fill="#50a8e0"/>
        </g>
        <g id="Group_125" data-name="Group 125" transform="translate(50.183 287.454)">
          <path id="Path_240" data-name="Path 240" d="M552.984,236.441c22.674-9.008,31.748-17.133,34.243-19.711a10.859,10.859,0,0,0,.763-.852l-32.2,9.39h0C554.988,229.164,553.933,232.828,552.984,236.441Z" transform="translate(-552.984 -215.877)" fill="#50a8e0"/>
        </g>
        <g id="Group_131" data-name="Group 131" transform="translate(84.49 127.439)">
          <g id="Group_130" data-name="Group 130">
            <g id="Group_129" data-name="Group 129">
              <path id="Path_242" data-name="Path 242" d="M545.554,171.433s1.945,24.21-2.712,31.459,3.983,17.1,21.811,13.727,16.776-13.466,16.776-13.466-4.987-14.944-3.526-26.9S545.554,171.433,545.554,171.433Z" transform="translate(-541.593 -169.32)" fill="#eea886"/>
            </g>
          </g>
        </g>
        <g id="Group_136" data-name="Group 136" transform="translate(91.98 132.669)">
          <g id="Group_135" data-name="Group 135">
            <path id="Path_244" data-name="Path 244" d="M569.8,173.873a27.535,27.535,0,0,1-26.5-3.031,17.049,17.049,0,0,0,13.253,8.565C566.171,180.476,569.8,173.873,569.8,173.873Z" transform="translate(-543.298 -170.842)" fill="#a77860"/>
          </g>
        </g>
        <g id="Group_138" data-name="Group 138" transform="translate(111.248 249.815)">
          <path id="Path_246" data-name="Path 246" d="M543.824,207.638a2.712,2.712,0,1,0,2.708-2.712A2.714,2.714,0,0,0,543.824,207.638Z" transform="translate(-543.824 -204.926)" fill="#48484d"/>
        </g>
      </g>
      <path id="Path_248" data-name="Path 248" d="M296.547,226.793a65.312,65.312,0,0,0-14.73-7.663l3.078,7.126c7.191.075,11.652.552,11.652.552Z" transform="translate(128.79 2628.143)" fill="#a50b1a" opacity="0.29"/>
      <path id="Path_249" data-name="Path 249" d="M270.935,226.809c2.88-.166,7.464-.466,12.687-.9a25.2,25.2,0,0,0-5.373-5.673S274.769,221.42,270.935,226.809Z" transform="translate(81.319 2632.986)" fill="#a50b1a" opacity="0.29"/>
      <path id="Path_250" data-name="Path 250" d="M276.029,229.619a50.319,50.319,0,0,0,4.574,8.6c3.368-.413,6.569-.9,9.411-1.4,2.821-.509,5.786-.874,8.784-1.131-.091-.767-.22-1.512-.349-2.263-1.705-9.775-4.96-13.127-11.658-15.342C285.247,217.564,273.841,223.238,276.029,229.619Z" transform="translate(102.329 2623.397)" fill="#a50b1a" opacity="0.29"/>
      <path id="Path_252" data-name="Path 252" d="M275.8,228.408a48.093,48.093,0,0,0,4.349,8.161c4.917,7.829,12.4,17.32,15.277,16.441,2.724-.831,3.223-10.146,1.995-18.849-.091-.729-.209-1.437-.332-2.15-1.619-9.282-4.708-12.462-11.068-14.564C284.553,216.959,273.727,222.354,275.8,228.408Z" transform="translate(101.403 2620.667)" fill="#fff181"/>
      <path id="Path_253" data-name="Path 253" d="M275.8,228.408a48.093,48.093,0,0,0,4.349,8.161c3.191-.4,6.236-.847,8.934-1.335,2.676-.483,5.491-.831,8.338-1.073-.091-.729-.209-1.437-.332-2.15-1.619-9.282-4.708-12.462-11.068-14.564C284.553,216.959,273.727,222.354,275.8,228.408Z" transform="translate(101.403 2620.667)" fill="#a50b1a" opacity="0.29"/>
      <path id="Path_254" data-name="Path 254" d="M276.078,214.737l2.788,20.94.075.515s1.255,6.676,6.494,5.041c3.545-1.1,3.545-7.813,3.18-12.022-.182-2.016-.44-3.469-.44-3.469Z" transform="translate(103.754 2608.98)" fill="#db613b"/>
      <path id="Path_255" data-name="Path 255" d="M276.078,214.737l2.788,20.94a13.759,13.759,0,0,1,2.343-2.772,16.376,16.376,0,0,1,7.405-3.695c-.182-2.016-.44-3.469-.44-3.469Z" transform="translate(103.754 2608.98)" fill="#b6482d"/>
      <path id="Path_257" data-name="Path 257" d="M276.319,215.219l2.933,22.061.08.542s1.324,7.03,6.842,5.309c3.732-1.164,3.732-8.231,3.346-12.66-.193-2.123-.461-3.652-.461-3.652Z" transform="translate(104.806 2611.082)" fill="#db613b"/>
      <path id="Path_258" data-name="Path 258" d="M276.319,215.219l2.933,22.061a14.436,14.436,0,0,1,2.472-2.922,17.252,17.252,0,0,1,7.8-3.888c-.193-2.123-.461-3.652-.461-3.652Z" transform="translate(104.806 2611.082)" fill="#d95025"/>
      <path id="Path_259" data-name="Path 259" d="M272.839,256.935c2.51,14.387,21.256,38.512,35.016,44.631,4.156,1.861,20.146-6.333,28.619-15.99,7.952-9.078,5.373-23.567,5.689-33.166.225-6.859,1.754-12.709,2.113-20.554a73.832,73.832,0,0,0-.3-10.548c-1.378-13.872-39-30.989-54.873-15.99C273.215,220.321,270.351,242.564,272.839,256.935Z" transform="translate(86.182 2542.485)" fill="url(#linear-gradient-2)"/>
      <path id="Path_260" data-name="Path 260" d="M291.156,231.7c3.882-1.255,3.625-24.629-7.373-25s-8.692,15.208-5.625,19.379C281.279,230.319,287.28,232.946,291.156,231.7Z" transform="translate(101.749 2573.858)" fill="#fff"/>
      <path id="Path_261" data-name="Path 261" d="M282.422,225.625a20.431,20.431,0,0,0,.359,2.761c.123.6.274,1.169.434,1.721.826,2.687,8.912.091,11.69-7.319,2.8-7.5.059-15.031-4.322-15.631-3.073-.4-5.475,2.788-6.869,7.2a23.515,23.515,0,0,0-.649,2.4A31.03,31.03,0,0,0,282.422,225.625Z" transform="translate(131.069 2575.763)" fill="#fff"/>
      <path id="Path_262" data-name="Path 262" d="M282.482,215.859c-.542,4.472.858,8.317,3.115,8.59s4.536-3.126,5.078-7.6-.858-8.322-3.121-8.6S283.023,211.387,282.482,215.859Z" transform="translate(131.182 2580.638)" fill="url(#linear-gradient-3)"/>
      <path id="Path_263" data-name="Path 263" d="M282.7,214.275c-.4,3.309.633,6.156,2.306,6.36s3.357-2.317,3.759-5.625-.633-6.161-2.306-6.36S283.1,210.967,282.7,214.275Z" transform="translate(132.254 2582.378)" fill="#47140b"/>
      <path id="Path_264" data-name="Path 264" d="M276.129,215.966c.064,4.5,1.968,8.124,4.247,8.092s4.07-3.716,4-8.22-1.973-8.129-4.247-8.092S276.059,211.461,276.129,215.966Z" transform="translate(103.966 2578.478)" fill="url(#linear-gradient-4)"/>
      <path id="Path_265" data-name="Path 265" d="M276.418,214.123c.048,3.335,1.459,6.017,3.142,5.99s3.014-2.745,2.96-6.081-1.458-6.016-3.142-5.99S276.365,210.793,276.418,214.123Z" transform="translate(105.232 2579.774)" fill="#47140b"/>
      <path id="Path_266" data-name="Path 266" d="M293.513,223.672s-1.024-12.441-9.277-14.076c-7.566-1.5-8.317,10.778-8.317,10.778s-2.5-14.532,6.5-13.9C293.6,207.248,293.513,223.672,293.513,223.672Z" transform="translate(101.672 2572.831)" fill="#47140b"/>
      <path id="Path_267" data-name="Path 267" d="M282.427,218.749s3.732-11.556,10.156-8.43c5.062,2.467,1.941,13.127,1.941,13.127s4.461-8.124,1.137-13.561S284.395,206.2,282.427,218.749Z" transform="translate(131.451 2575.105)" fill="#47140b"/>
      <path id="Path_268" data-name="Path 268" d="M276.917,209.532c-.075.44,1.6,1.1,3.743,1.469s3.941.322,4.016-.118-1.6-1.094-3.743-1.469S276.992,209.1,276.917,209.532Z" transform="translate(107.404 2584.686)" fill="#fff"/>
      <path id="Path_269" data-name="Path 269" d="M282.9,210.211c-.075.434,1.6,1.089,3.743,1.464s3.941.322,4.016-.113-1.6-1.089-3.743-1.458S282.971,209.777,282.9,210.211Z" transform="translate(133.486 2587.665)" fill="#fff"/>
      <path id="Path_270" data-name="Path 270" d="M302.587,223.875l-25.691-10.6s6.751,13.594,13.781,15.749S302.587,223.875,302.587,223.875Z" transform="translate(107.323 2602.619)" fill="#47140b"/>
      <path id="Path_271" data-name="Path 271" d="M297.974,222.545a12.72,12.72,0,0,1-6.188,3.877c-7.748,2.247-14.564-12.939-14.564-12.939S295.223,221.521,297.974,222.545Z" transform="translate(108.745 2603.509)" fill="#fff"/>
      <path id="Path_272" data-name="Path 272" d="M277.46,213.95l9.466,6.655-8.431-3.939Z" transform="translate(109.786 2605.547)" fill="#47140b"/>
      <path id="Path_273" data-name="Path 273" d="M279.658,215.6l14.848-2.847s-3.094,4.5-6.472,4.751S279.658,215.6,279.658,215.6Z" transform="translate(119.371 2600.303)" fill="#d95025"/>
      <path id="Path_274" data-name="Path 274" d="M303.179,204.853s-11.465-2.279-18.988,1.244-9.491,11.658-9.491,11.658,5.77-4.912,12.805-5.63C293.468,211.507,301.544,209.475,303.179,204.853Z" transform="translate(97.743 2562.699)" fill="#290e0d"/>
      <path id="Path_275" data-name="Path 275" d="M282.814,204.557s3.641.172,9.722,3.99c4.413,2.772,4.853,12.741,4.853,12.741a16.638,16.638,0,0,0-6.344-7.942C287.061,210.584,284,209.421,282.814,204.557Z" transform="translate(133.139 2564.571)" fill="#290e0d"/>
      <path id="Path_276" data-name="Path 276" d="M272.839,256.935c2.51,14.387,21.256,38.512,35.016,44.631,0,0-19.009-16.5-25.01-45.5s19.32-37.408,35.627-36.566a36.336,36.336,0,0,1,25.8,12.355,73.832,73.832,0,0,0-.3-10.548c-1.378-13.872-39-30.989-54.873-15.99C273.215,220.321,270.351,242.564,272.839,256.935Z" transform="translate(86.182 2542.485)" fill="#d95025"/>
      <path id="Path_277" data-name="Path 277" d="M268.852,213.279c.842,7.62,10.172,22.908,16.2,22.5a20.256,20.256,0,0,0,6.9-1.571,13.125,13.125,0,0,0,2.536-1.41,7.947,7.947,0,0,0,1.244-1.067l-7.3-13.154s-12.108-11.524-18.109-9.363C269.034,209.681,268.627,211.193,268.852,213.279Z" transform="translate(71.975 2583.712)" fill="#db613b"/>
      <path id="Path_278" data-name="Path 278" d="M268.8,209.753c.842,7.62,10.172,22.908,16.2,22.5a20.256,20.256,0,0,0,6.9-1.571l2.536-1.41-4.005-5.958s-7.952-7.127-14.805-10.5C272.166,211.1,270.032,210.219,268.8,209.753Z" transform="translate(72.023 2587.238)" fill="#b6482d"/>
      <path id="Path_279" data-name="Path 279" d="M338.067,214.938s8.539,40-11.53,53.13-52.72-19.987-52.72-19.987,43.163,4.337,49-3.968a80.826,80.826,0,0,0,9.06-17.6Z" transform="matrix(0.998, 0.07, -0.07, 0.998, 104.825, 2586.69)" fill="#ac0a1b"/>
      <path id="Path_280" data-name="Path 280" d="M336.427,242.416s-14.3,23.353-30.233,21.138c-13.39-1.861-20.238-7.743-25.755-22.034-7.556-19.583-7.4-32.882-7.4-32.882s-2.129,47,15.551,60.878C315.68,290.79,336.427,242.416,336.427,242.416Z" transform="translate(90.148 2582.378)" fill="#ac0a1b"/>
      <path id="Path_281" data-name="Path 281" d="M366.005,279.968s6.145-36.877-1.115-46.91-29.461-21.68-47.977-7.609c-18.489,14.081-21.074,73.088.987,83.523,26.3,12.451,44.464-13.749,44.7-14.3.075.509-8.623,25.337-22.007,34.56-9.6,6.617-30.254,5-49.188-11.116-13.363-11.363-28.8-47.58-23.294-77.255,2.29-12.392,8.247-23.626,19.513-31.466,22.57-15.674,45.789-14.693,62.342-8.666,11.524,4.161,19.819,10.768,22.409,15.889C385.733,242.995,366.005,279.968,366.005,279.968Z" transform="translate(63.981 2530.123)" fill="url(#linear-gradient)"/>
      <path id="Path_283" data-name="Path 283" d="M274.158,228.442s7.62-30.614,36.737-28.04,25.932,30.785,25.932,30.785-3.137-26.677-30.26-26.6C285,204.644,274.158,228.442,274.158,228.442Z" transform="translate(95.379 2545.776)" fill="#ac0a1b"/>
      <path id="Path_284" data-name="Path 284" d="M273.817,234.382s15-14.494,36.024-17.438c21.438-3,28.592,21.364,28.592,21.364s4.027-40.073-30.3-37.295C277.957,203.452,273.817,234.382,273.817,234.382Z" transform="translate(93.891 2548.506)" fill="url(#linear-gradient-6)"/>
    </g>
  </g>
</svg>
