<svg xmlns="http://www.w3.org/2000/svg" width="68.668" height="59.131" viewBox="0 0 68.668 59.131">
  <g id="Layer_1" transform="translate(-2 -5)">
    <g id="Group_76" data-name="Group 76" transform="translate(2 24.074)">
      <path id="Path_205" data-name="Path 205" d="M5.361,23.13A2.865,2.865,0,0,1,2.5,20.269V18.361A2.865,2.865,0,0,1,5.361,15.5H66.4a2.865,2.865,0,0,1,2.861,2.861v1.907A2.865,2.865,0,0,1,66.4,23.13Z" transform="translate(-1.546 -14.546)" fill="#98ccfd"/>
      <g id="Group_75" data-name="Group 75">
        <path id="Path_206" data-name="Path 206" d="M66.853,16.907a1.911,1.911,0,0,1,1.907,1.907v1.907a1.911,1.911,0,0,1-1.907,1.907H5.815a1.911,1.911,0,0,1-1.907-1.907V18.815a1.911,1.911,0,0,1,1.907-1.907H66.853m0-1.907H5.815A3.814,3.814,0,0,0,2,18.815v1.907a3.814,3.814,0,0,0,3.815,3.815H66.853a3.814,3.814,0,0,0,3.815-3.815V18.815A3.814,3.814,0,0,0,66.853,15Z" transform="translate(-2 -15)" fill="#4788c7"/>
      </g>
    </g>
    <g id="Group_77" data-name="Group 77" transform="translate(55.409 48.871)">
      <path id="Path_207" data-name="Path 207" d="M32.407,41.852A1.911,1.911,0,0,1,30.5,39.945V28.5h9.537V39.945a1.911,1.911,0,0,1-1.907,1.907Z" transform="translate(-29.546 -27.546)" fill="#2366a8"/>
      <path id="Path_208" data-name="Path 208" d="M39.537,29.907V40.4a.954.954,0,0,1-.954.954H32.861a.954.954,0,0,1-.954-.954V29.907h7.63M41.445,28H30V40.4a2.862,2.862,0,0,0,2.861,2.861h5.722A2.862,2.862,0,0,0,41.445,40.4V28Z" transform="translate(-30 -28)" fill="#2366a8"/>
    </g>
    <g id="Group_78" data-name="Group 78" transform="translate(5.815 48.871)">
      <path id="Path_209" data-name="Path 209" d="M6.407,41.852A1.911,1.911,0,0,1,4.5,39.945V28.5h9.537V39.945a1.911,1.911,0,0,1-1.907,1.907Z" transform="translate(-3.546 -27.546)" fill="#2366a8"/>
      <path id="Path_210" data-name="Path 210" d="M13.537,29.907V40.4a.954.954,0,0,1-.954.954H6.861a.954.954,0,0,1-.954-.954V29.907h7.63M15.445,28H4V40.4A2.862,2.862,0,0,0,6.861,43.26h5.722A2.862,2.862,0,0,0,15.445,40.4V28Z" transform="translate(-4 -28)" fill="#2366a8"/>
    </g>
    <g id="Group_81" data-name="Group 81" transform="translate(5.815 5)">
      <g id="Group_79" data-name="Group 79" transform="translate(0.954 0.954)">
        <path id="Path_211" data-name="Path 211" d="M9.269,57A4.775,4.775,0,0,1,4.5,52.232V31.092l1.978-5.009,4.5-17.03A4.772,4.772,0,0,1,15.586,5.5H52.547a4.771,4.771,0,0,1,4.61,3.554l4.462,16.923,2.012,5.116v21.14A4.775,4.775,0,0,1,58.862,57Z" transform="translate(-4.5 -5.5)" fill="#268aca"/>
      </g>
      <g id="Group_80" data-name="Group 80">
        <path id="Path_212" data-name="Path 212" d="M53,6.907A3.819,3.819,0,0,1,56.688,9.75l4.462,16.923.029.109.042.1,1.911,4.841V52.686A3.819,3.819,0,0,1,59.316,56.5H9.722a3.819,3.819,0,0,1-3.815-3.815V31.727l1.911-4.839.042-.1.029-.109L12.351,9.75A3.817,3.817,0,0,1,16.04,6.907H53M53,5H16.04a5.721,5.721,0,0,0-5.534,4.263L6.045,26.186,4,31.363V52.686a5.722,5.722,0,0,0,5.722,5.722H59.316a5.722,5.722,0,0,0,5.722-5.722V31.363L63,26.186,58.534,9.263A5.725,5.725,0,0,0,53,5Z" transform="translate(-4 -5)" fill="#268aca"/>
      </g>
    </g>
    <ellipse id="Ellipse_8" data-name="Ellipse 8" cx="4" cy="3.5" rx="4" ry="3.5" transform="translate(53.334 34.065)" fill="#fff"/>
    <ellipse id="Ellipse_9" data-name="Ellipse 9" cx="4" cy="3.5" rx="4" ry="3.5" transform="translate(11.334 34.065)" fill="#fff"/>
    <g id="Group_83" data-name="Group 83" transform="translate(21.074 43.149)">
      <path id="Path_213" data-name="Path 213" d="M12.6,38.852l2-11A2.861,2.861,0,0,1,17.413,25.5h18.6a2.861,2.861,0,0,1,2.815,2.35l2,11Z" transform="translate(-11.456 -24.546)" fill="#69aee6"/>
      <g id="Group_82" data-name="Group 82" transform="translate(0)">
        <path id="Path_214" data-name="Path 214" d="M36.56,26.907a1.906,1.906,0,0,1,1.877,1.566l1.8,9.879H14.285l1.8-9.879a1.9,1.9,0,0,1,1.877-1.566h18.6m0-1.907h-18.6A3.814,3.814,0,0,0,14.2,28.132L12,40.26H42.519L40.314,28.132A3.814,3.814,0,0,0,36.56,25Z" transform="translate(-12 -25)" fill="#4788c7"/>
      </g>
    </g>
    <rect id="Rectangle_20" data-name="Rectangle 20" width="62" height="6" transform="translate(5.334 26.065)" fill="#98ccfd"/>
    <g id="Group_85" data-name="Group 85" transform="translate(7.913 5)">
      <path id="Path_215" data-name="Path 215" d="M5.749,24.574,9.842,9.054A4.768,4.768,0,0,1,14.453,5.5H51.413a4.771,4.771,0,0,1,4.61,3.554l4.093,15.521Z" transform="translate(-4.511 -4.546)" fill="#69aee6"/>
      <g id="Group_84" data-name="Group 84">
        <path id="Path_216" data-name="Path 216" d="M52,6.907A3.819,3.819,0,0,1,55.689,9.75l3.777,14.325H7.576L11.353,9.75a3.817,3.817,0,0,1,3.689-2.842H52M52,5H15.042A5.721,5.721,0,0,0,9.508,9.263L5.1,25.982H61.942L57.534,9.263A5.721,5.721,0,0,0,52,5Z" transform="translate(-5.1 -5)" fill="#4788c7"/>
      </g>
    </g>
    <circle id="Ellipse_10" data-name="Ellipse 10" cx="5.5" cy="5.5" r="5.5" transform="translate(44.334 11.065)" fill="#268aca"/>
    <ellipse id="Ellipse_11" data-name="Ellipse 11" cx="4" cy="3.5" rx="4" ry="3.5" transform="translate(32.334 9.065)" fill="#268aca"/>
    <circle id="Ellipse_12" data-name="Ellipse 12" cx="5.5" cy="5.5" r="5.5" transform="translate(17.334 11.065)" fill="#268aca"/>
  </g>
</svg>
