<svg xmlns="http://www.w3.org/2000/svg" width="77.823" height="77.296" viewBox="0 0 77.823 77.296">
  <g id="icons8-discount_56" transform="translate(-1 -1.128)">
    <g id="Group_74" data-name="Group 74" transform="translate(1 1.128)">
      <path id="Path_200" data-name="Path 200" d="M39.387,76.876a1.412,1.412,0,0,1-.905-.324l-7-5.732L22.6,72.639A1.406,1.406,0,0,1,21,71.791l-3.535-8.327-8.7-2.507a1.441,1.441,0,0,1-1.028-1.493l.735-9.021L1.941,44.179a1.427,1.427,0,0,1-.219-1.8l4.847-7.645L3.692,26.152a1.439,1.439,0,0,1,.643-1.692l7.846-4.524L13.624,11a1.431,1.431,0,0,1,1.352-1.2l9.046-.356L29.448,2.2A1.452,1.452,0,0,1,30.6,1.628a1.429,1.429,0,0,1,.61.137l8.177,3.891L47.56,1.767a1.379,1.379,0,0,1,.61-.139,1.443,1.443,0,0,1,1.149.571L54.75,9.443,63.8,9.8A1.443,1.443,0,0,1,65.153,11L66.6,19.934l7.843,4.522a1.44,1.44,0,0,1,.645,1.7l-2.877,8.581,4.847,7.645a1.438,1.438,0,0,1-.221,1.8L70.3,50.442l.737,9.023a1.44,1.44,0,0,1-1.03,1.493l-8.693,2.507L57.775,71.8a1.424,1.424,0,0,1-1.307.874,1.351,1.351,0,0,1-.287-.031L47.3,70.819l-7,5.732A1.426,1.426,0,0,1,39.387,76.876Z" transform="translate(-0.476 -0.604)" fill="#268aca"/>
      <path id="Path_201" data-name="Path 201" d="M48.7,3.176a.413.413,0,0,1,.328.162l5.138,6.854.584.78.973.039,8.556.338a.415.415,0,0,1,.389.34l1.366,8.454.156.96.844.487,7.424,4.28a.409.409,0,0,1,.184.479l-2.722,8.122-.309.924.522.823,4.583,7.231a.41.41,0,0,1-.063.514l-6.183,5.927-.7.674.08.971.7,8.538a.4.4,0,0,1-.291.424l-8.228,2.371-.936.27-.381.9-3.346,7.88a.413.413,0,0,1-.416.244.288.288,0,0,1-.041,0l-8.4-1.72-.954-.195-.754.616L40.17,76.282a.407.407,0,0,1-.516,0l-6.625-5.423-.754-.616-.954.195L22.831,72.17a.411.411,0,0,1-.362-.252l-3.346-7.882-.381-.9-.936-.27L9.583,60.5a.411.411,0,0,1-.295-.426l.7-8.538.08-.971-.709-.672L3.171,43.96a.4.4,0,0,1-.061-.506L7.7,36.219l.522-.823-.309-.924-2.724-8.12a.407.407,0,0,1,.184-.481l7.422-4.28.844-.487.156-.96,1.366-8.454a.408.408,0,0,1,.383-.342l8.558-.338.973-.039.584-.78,5.132-6.848a.417.417,0,0,1,.334-.166.4.4,0,0,1,.172.039l7.735,3.68.881.418.881-.418,7.743-3.684a.405.405,0,0,1,.164-.035m0-2.048a2.415,2.415,0,0,0-1.051.24l-7.735,3.68-7.735-3.68a2.426,2.426,0,0,0-1.051-.238,2.469,2.469,0,0,0-1.968.981L24.019,8.963l-8.56.338a2.452,2.452,0,0,0-2.322,2.062L11.77,19.817,4.348,24.1a2.455,2.455,0,0,0-1.1,2.9l2.724,8.122L1.381,42.359a2.45,2.45,0,0,0,.377,3.084L7.94,51.369l-.7,8.538a2.458,2.458,0,0,0,1.763,2.558l8.228,2.371,3.346,7.882a2.463,2.463,0,0,0,2.249,1.5,2.492,2.492,0,0,0,.5-.053l8.4-1.72,6.625,5.423a2.454,2.454,0,0,0,3.109,0l6.627-5.423,8.4,1.72a2.432,2.432,0,0,0,2.752-1.446l3.346-7.882,8.228-2.371a2.452,2.452,0,0,0,1.763-2.558l-.7-8.538,6.183-5.927a2.458,2.458,0,0,0,.377-3.086l-4.585-7.235L76.58,27a2.46,2.46,0,0,0-1.1-2.9l-7.422-4.28-1.366-8.454A2.462,2.462,0,0,0,64.36,9.3L55.8,8.965l-5.14-6.856a2.466,2.466,0,0,0-1.968-.981Z" transform="translate(-1 -1.128)" fill="#4788c7"/>
    </g>
    <path id="Path_202" data-name="Path 202" d="M35.315,22.6a7.51,7.51,0,0,0-5.849-2.283,8.1,8.1,0,0,0-6.183,2.462A9.516,9.516,0,0,0,21,29.513a8.761,8.761,0,0,0,2.167,6.242A7.454,7.454,0,0,0,28.975,38.1a7.966,7.966,0,0,0,6.084-2.482A9.251,9.251,0,0,0,37.383,29,9.164,9.164,0,0,0,35.315,22.6ZM32.284,33.312a3.581,3.581,0,0,1-3.051,1.5,3.6,3.6,0,0,1-3.051-1.438,6.437,6.437,0,0,1-1.122-4.036A6.757,6.757,0,0,1,26.2,25.18a3.664,3.664,0,0,1,3.111-1.5,3.514,3.514,0,0,1,2.974,1.438,6.555,6.555,0,0,1,1.1,4.036A6.965,6.965,0,0,1,32.284,33.312Z" transform="translate(20.958 20.109)" fill="#fff"/>
    <path id="Path_203" data-name="Path 203" d="M25.315,13.283A7.491,7.491,0,0,0,19.468,11a8,8,0,0,0-6.183,2.462A9.423,9.423,0,0,0,11,20.2a8.842,8.842,0,0,0,2.146,6.242,7.549,7.549,0,0,0,5.81,2.343,7.984,7.984,0,0,0,6.1-2.482,9.255,9.255,0,0,0,2.322-6.615A9.167,9.167,0,0,0,25.315,13.283ZM22.263,24a3.548,3.548,0,0,1-3.033,1.5,3.667,3.667,0,0,1-3.072-1.438,6.436,6.436,0,0,1-1.1-4.036,6.855,6.855,0,0,1,1.122-4.155,3.731,3.731,0,0,1,3.111-1.515,3.563,3.563,0,0,1,2.994,1.458,6.5,6.5,0,0,1,1.1,4.018A6.829,6.829,0,0,1,22.263,24Z" transform="translate(10.479 10.345)" fill="#fff"/>
    <path id="Path_204" data-name="Path 204" d="M41.094,11H37L13.55,47.862h4.075Z" transform="translate(13.151 10.345)" fill="#fff"/>
  </g>
</svg>
