<svg xmlns="http://www.w3.org/2000/svg" width="33" height="33" viewBox="0 0 33 33">
  <g id="Vector_Smart_Object" data-name="Vector Smart Object" transform="translate(-1340 -4435)">
    <g id="Vector_Smart_Object-2" data-name="Vector Smart Object" transform="translate(984.7 4328.432)">
      <g id="Group_647" data-name="Group 647">
        <path id="Path_6706" data-name="Path 6706" d="M371.8,138.942h0a15.874,15.874,0,0,1-15.874-15.874h0A15.874,15.874,0,0,1,371.8,107.193h0a15.875,15.875,0,0,1,15.875,15.875h0A15.875,15.875,0,0,1,371.8,138.942Z" fill="none" stroke="#fff" stroke-miterlimit="10" stroke-width="1.251"/>
        <g id="Group_646" data-name="Group 646">
          <path id="Path_6707" data-name="Path 6707" d="M371.8,115.932c2.324,0,2.6.009,3.518.051a4.822,4.822,0,0,1,1.616.3,2.877,2.877,0,0,1,1.652,1.652,4.821,4.821,0,0,1,.3,1.616c.042.918.051,1.194.051,3.518s-.009,2.6-.051,3.517a4.823,4.823,0,0,1-.3,1.617,2.877,2.877,0,0,1-1.652,1.652,4.806,4.806,0,0,1-1.616.3c-.918.042-1.193.051-3.518.051s-2.6-.009-3.517-.051a4.812,4.812,0,0,1-1.617-.3,2.883,2.883,0,0,1-1.652-1.652,4.809,4.809,0,0,1-.3-1.617c-.042-.918-.051-1.193-.051-3.517s.009-2.6.051-3.518a4.807,4.807,0,0,1,.3-1.616,2.883,2.883,0,0,1,1.652-1.652,4.829,4.829,0,0,1,1.617-.3c.918-.042,1.193-.051,3.517-.051m0-1.568c-2.364,0-2.66.011-3.589.053a6.4,6.4,0,0,0-2.113.4,4.451,4.451,0,0,0-2.545,2.546,6.373,6.373,0,0,0-.4,2.113c-.043.928-.053,1.225-.053,3.589s.01,2.66.053,3.589a6.373,6.373,0,0,0,.4,2.113,4.451,4.451,0,0,0,2.545,2.546,6.417,6.417,0,0,0,2.113.4c.928.042,1.225.052,3.589.052s2.66-.01,3.589-.052a6.417,6.417,0,0,0,2.113-.4,4.455,4.455,0,0,0,2.546-2.546,6.4,6.4,0,0,0,.4-2.113c.043-.928.053-1.225.053-3.589s-.01-2.66-.053-3.589a6.4,6.4,0,0,0-.4-2.113,4.455,4.455,0,0,0-2.546-2.546,6.4,6.4,0,0,0-2.113-.4c-.928-.042-1.225-.053-3.589-.053" fill="#fff"/>
          <path id="Path_6708" data-name="Path 6708" d="M371.8,118.6a4.469,4.469,0,1,0,4.469,4.469A4.47,4.47,0,0,0,371.8,118.6m0,7.371a2.9,2.9,0,1,1,2.9-2.9,2.9,2.9,0,0,1-2.9,2.9" fill="#fff"/>
          <path id="Path_6709" data-name="Path 6709" d="M377.49,118.422a1.044,1.044,0,1,1-1.044-1.044,1.044,1.044,0,0,1,1.044,1.044" fill="#fff"/>
        </g>
      </g>
    </g>
  </g>
</svg>
