<svg xmlns="http://www.w3.org/2000/svg" width="33" height="33" viewBox="0 0 33 33">
  <g id="Vector_Smart_Object" data-name="Vector Smart Object" transform="translate(-216.351 -106.568)">
    <g id="Group_644" data-name="Group 644">
      <path id="Path_6702" data-name="Path 6702" d="M232.852,138.942h0a15.875,15.875,0,0,1-15.875-15.874h0a15.875,15.875,0,0,1,15.875-15.875h0a15.874,15.874,0,0,1,15.874,15.875h0A15.874,15.874,0,0,1,232.852,138.942Z" fill="none" stroke="#fff" stroke-miterlimit="10" stroke-width="1.251"/>
      <path id="Path_6703" data-name="Path 6703" d="M224.393,128.383a9.871,9.871,0,0,0,15.185-8.764,7.035,7.035,0,0,0,1.731-1.8,6.922,6.922,0,0,1-1.993.546,3.475,3.475,0,0,0,1.526-1.92,6.963,6.963,0,0,1-2.2.842,3.473,3.473,0,0,0-5.914,3.166,9.849,9.849,0,0,1-7.153-3.626,3.474,3.474,0,0,0,1.074,4.634,3.459,3.459,0,0,1-1.572-.435,3.475,3.475,0,0,0,2.784,3.448,3.474,3.474,0,0,1-1.567.058,3.472,3.472,0,0,0,3.242,2.411A6.979,6.979,0,0,1,224.393,128.383Z" fill="#fff"/>
    </g>
  </g>
</svg>
