<svg xmlns="http://www.w3.org/2000/svg" width="33" height="33" viewBox="0 0 33 33">
  <g id="Vector_Smart_Object3" data-name="Vector Smart Object3" transform="translate(-1340 -4499)" opacity="0.999">
    <g id="Vector_Smart_Object3-2" data-name="Vector Smart Object3" transform="translate(1077.441 4257.487)">
      <path id="Path_6714" data-name="Path 6714" d="M279.059,273.887h0a15.874,15.874,0,0,1-15.874-15.874h0a15.874,15.874,0,0,1,15.874-15.875h0a15.874,15.874,0,0,1,15.875,15.875h0A15.874,15.874,0,0,1,279.059,273.887Z" fill="none" stroke="#fff" stroke-miterlimit="10" stroke-width="1.251"/>
      <path id="Path_6715" data-name="Path 6715" d="M288.013,253.485a2.345,2.345,0,0,0-1.652-1.662,67.9,67.9,0,0,0-14.6,0,2.345,2.345,0,0,0-1.652,1.662,26.391,26.391,0,0,0,0,9.055,2.347,2.347,0,0,0,1.652,1.663,68.044,68.044,0,0,0,14.6,0,2.347,2.347,0,0,0,1.652-1.663,26.448,26.448,0,0,0,0-9.055Zm-10.865,7.306v-5.557l4.885,2.779Z" fill="#fff"/>
    </g>
  </g>
</svg>
